<?xml version="1.0" standalone="no"?>
<!DOCTYPE svg PUBLIC "-//W3C//DTD SVG 1.1//EN" "http://www.w3.org/Graphics/SVG/1.1/DTD/svg11.dtd" >
<svg>
<metadata>
Created by FontForge 20110222 at Mon Mar  7 12:54:15 2011
 By www-data
directed by akihiro oya (C) 1998
</metadata>
<defs>
<font id="cubic-millimeter" horiz-adv-x="512" >
  <font-face 
    font-family="cubic-millimeter"
    font-weight="400"
    font-stretch="normal"
    units-per-em="1024"
    panose-1="2 11 6 0 0 0 0 0 0 0"
    ascent="880"
    descent="-144"
    x-height="320"
    cap-height="524"
    bbox="-0.285714 -4 648.133 526"
    underline-thickness="48"
    underline-position="-72"
    unicode-range="U+0020-2122"
  />
    <missing-glyph />
    <glyph glyph-name="space" unicode=" " horiz-adv-x="300" 
 />
    <glyph glyph-name="exclam" unicode="!" horiz-adv-x="600" 
d="M254 285q-4 10 -0.5 19.5t14.5 13.5l248 103q9 3 18.5 -0.5t14.5 -13.5v0q3 -9 -1 -19t-14 -14l-248 -102q-10 -4 -19.5 0t-12.5 13v0zM296 11v0q-3 -9 -12.5 -13t-19.5 0l-248 102q-10 4 -14 14t-1 19v0q5 10 14.5 13.5t18.5 0.5l248 -103q11 -4 14.5 -13.5t-0.5 -19.5z
" />
    <glyph glyph-name="quotedbl" unicode="&#x22;" horiz-adv-x="700" 
d="M296 511q4 -10 0.5 -19.5t-14.5 -13.5l-248 -103q-9 -3 -18.5 0.5t-14.5 13.5v0q-3 9 1 19t14 14l248 102q10 4 19.5 0t12.5 -13v0zM296 511q4 -10 0.5 -19.5t-14.5 -13.5l-248 -103q-9 -3 -18.5 0.5t-14.5 13.5v0q-3 9 1 19t14 14l248 102q10 4 19.5 0t12.5 -13v0z
M646 511q4 -10 0.5 -19.5t-14.5 -13.5l-248 -103q-9 -3 -18.5 0.5t-14.5 13.5v0q-3 9 1 19t14 14l248 102q10 4 19.5 0t12.5 -13v0z" />
    <glyph glyph-name="numbersign" unicode="#" 
 />
    <glyph glyph-name="dollar" unicode="$" 
 />
    <glyph glyph-name="percent" unicode="%" 
 />
    <glyph glyph-name="ampersand" unicode="&#x26;" horiz-adv-x="600" 
d="M296 511q4 -10 0.5 -19.5t-14.5 -13.5l-248 -103q-9 -3 -18.5 0.5t-14.5 13.5v0q-3 9 1 19t14 14l248 102q10 4 19.5 0t12.5 -13v0zM254 511v0q3 9 12.5 13t19.5 0l248 -102q10 -4 14 -14t1 -19v0q-5 -10 -14.5 -13.5t-18.5 -0.5l-248 103q-11 4 -14.5 13.5t0.5 19.5z
M296 285v0q-3 -9 -12.5 -13t-19.5 0l-248 102q-10 4 -14 14t-1 19v0q5 10 14.5 13.5t18.5 0.5l248 -103q11 -4 14.5 -13.5t-0.5 -19.5zM254 285q-4 10 -0.5 19.5t14.5 13.5l248 103q9 3 18.5 -0.5t14.5 -13.5v0q3 -9 -1 -19t-14 -14l-248 -102q-10 -4 -19.5 0t-12.5 13v0z
M50 395v-270q0 -10 -7 -17.5t-18 -7.5v0q-10 0 -17.5 7.5t-7.5 17.5v270q0 11 7.5 18t17.5 7v0q11 0 18 -7t7 -18zM300 295v-270q0 -10 -7 -17.5t-18 -7.5v0q-10 0 -17.5 7.5t-7.5 17.5v270q0 11 7.5 18t17.5 7v0q11 0 18 -7t7 -18zM296 11v0q-3 -9 -12.5 -13t-19.5 0
l-248 102q-10 4 -14 14t-1 19v0q5 10 14.5 13.5t18.5 0.5l248 -103q11 -4 14.5 -13.5t-0.5 -19.5zM254 11q-4 10 -0.5 19.5t14.5 13.5l248 103q9 3 18.5 -0.5t14.5 -13.5v0q3 -9 -1 -19t-14 -14l-248 -102q-10 -4 -19.5 0t-12.5 13v0z" />
    <glyph glyph-name="quotesingle" unicode="'" horiz-adv-x="350" 
d="M296 511q4 -10 0.5 -19.5t-14.5 -13.5l-248 -103q-9 -3 -18.5 0.5t-14.5 13.5v0q-3 9 1 19t14 14l248 102q10 4 19.5 0t12.5 -13v0z" />
    <glyph glyph-name="parenleft" unicode="(" horiz-adv-x="350" 
d="M296 511q4 -10 0.5 -19.5t-14.5 -13.5l-248 -103q-9 -3 -18.5 0.5t-14.5 13.5v0q-3 9 1 19t14 14l248 102q10 4 19.5 0t12.5 -13v0zM50 395v-270q0 -10 -7 -17.5t-18 -7.5v0q-10 0 -17.5 7.5t-7.5 17.5v270q0 11 7.5 18t17.5 7v0q11 0 18 -7t7 -18zM296 11v0
q-3 -9 -12.5 -13t-19.5 0l-248 102q-10 4 -14 14t-1 19v0q5 10 14.5 13.5t18.5 0.5l248 -103q11 -4 14.5 -13.5t-0.5 -19.5z" />
    <glyph glyph-name="parenright" unicode=")" horiz-adv-x="350" 
d="M4 511v0q3 9 12.5 13t19.5 0l248 -102q10 -4 14 -14t1 -19v0q-5 -10 -14.5 -13.5t-18.5 -0.5l-248 103q-11 4 -14.5 13.5t0.5 19.5zM300 395v-270q0 -10 -7 -17.5t-18 -7.5v0q-10 0 -17.5 7.5t-7.5 17.5v270q0 11 7.5 18t17.5 7v0q11 0 18 -7t7 -18zM4 11
q-4 10 -0.5 19.5t14.5 13.5l248 103q9 3 18.5 -0.5t14.5 -13.5v0q3 -9 -1 -19t-14 -14l-248 -102q-10 -4 -19.5 0t-12.5 13v0z" />
    <glyph glyph-name="asterisk" unicode="*" horiz-adv-x="600" 
d="M296 511q4 -10 0.5 -19.5t-14.5 -13.5l-248 -103q-9 -3 -18.5 0.5t-14.5 13.5v0q-3 9 1 19t14 14l248 102q10 4 19.5 0t12.5 -13v0zM254 511v0q3 9 12.5 13t19.5 0l248 -102q10 -4 14 -14t1 -19v0q-5 -10 -14.5 -13.5t-18.5 -0.5l-248 103q-11 4 -14.5 13.5t0.5 19.5z
M296 285v0q-3 -9 -12.5 -13t-19.5 0l-248 102q-10 4 -14 14t-1 19v0q5 10 14.5 13.5t18.5 0.5l248 -103q11 -4 14.5 -13.5t-0.5 -19.5zM254 285q-4 10 -0.5 19.5t14.5 13.5l248 103q9 3 18.5 -0.5t14.5 -13.5v0q3 -9 -1 -19t-14 -14l-248 -102q-10 -4 -19.5 0t-12.5 13v0z
M50 395v-270q0 -10 -7 -17.5t-18 -7.5v0q-10 0 -17.5 7.5t-7.5 17.5v270q0 11 7.5 18t17.5 7v0q11 0 18 -7t7 -18zM300 295v-270q0 -10 -7 -17.5t-18 -7.5v0q-10 0 -17.5 7.5t-7.5 17.5v270q0 11 7.5 18t17.5 7v0q11 0 18 -7t7 -18zM550 395v-270q0 -10 -7 -17.5t-18 -7.5v0
q-10 0 -17.5 7.5t-7.5 17.5v270q0 11 7.5 18t17.5 7v0q11 0 18 -7t7 -18zM296 11v0q-3 -9 -12.5 -13t-19.5 0l-248 102q-10 4 -14 14t-1 19v0q5 10 14.5 13.5t18.5 0.5l248 -103q11 -4 14.5 -13.5t-0.5 -19.5zM254 11q-4 10 -0.5 19.5t14.5 13.5l248 103q9 3 18.5 -0.5
t14.5 -13.5v0q3 -9 -1 -19t-14 -14l-248 -102q-10 -4 -19.5 0t-12.5 13v0z" />
    <glyph glyph-name="plus" unicode="+" 
 />
    <glyph glyph-name="comma" unicode="," horiz-adv-x="350" 
d="M4 11q-4 10 -0.5 19.5t14.5 13.5l248 103q9 3 18.5 -0.5t14.5 -13.5v0q3 -9 -1 -19t-14 -14l-248 -102q-10 -4 -19.5 0t-12.5 13v0z" />
    <glyph glyph-name="hyphen" unicode="-" horiz-adv-x="350" 
d="M296 285v0q-3 -9 -12.5 -13t-19.5 0l-248 102q-10 4 -14 14t-1 19v0q5 10 14.5 13.5t18.5 0.5l248 -103q11 -4 14.5 -13.5t-0.5 -19.5z" />
    <glyph glyph-name="period" unicode="." horiz-adv-x="350" 
d="M296 11v0q-3 -9 -12.5 -13t-19.5 0l-248 102q-10 4 -14 14t-1 19v0q5 10 14.5 13.5t18.5 0.5l248 -103q11 -4 14.5 -13.5t-0.5 -19.5z" />
    <glyph glyph-name="slash" unicode="/" horiz-adv-x="600" 
d="M516 421q9 3 18.5 -0.5t14.5 -13.5v0q3 -9 -1 -19t-14 -14l-497 -204q-10 -4 -19.5 0t-12.5 13v0q-4 10 -0.5 19.5t14.5 13.5z" />
    <glyph glyph-name="zero" unicode="0" horiz-adv-x="600" 
d="M296 511q4 -10 0.5 -19.5t-14.5 -13.5l-248 -103q-9 -3 -18.5 0.5t-14.5 13.5v0q-3 9 1 19t14 14l248 102q10 4 19.5 0t12.5 -13v0zM254 511v0q3 9 12.5 13t19.5 0l248 -102q10 -4 14 -14t1 -19v0q-5 -10 -14.5 -13.5t-18.5 -0.5l-248 103q-11 4 -14.5 13.5t0.5 19.5z
M254 285q-4 10 -0.5 19.5t14.5 13.5l248 103q9 3 18.5 -0.5t14.5 -13.5v0q3 -9 -1 -19t-14 -14l-248 -102q-10 -4 -19.5 0t-12.5 13v0zM50 395v-270q0 -10 -7 -17.5t-18 -7.5v0q-10 0 -17.5 7.5t-7.5 17.5v270q0 11 7.5 18t17.5 7v0q11 0 18 -7t7 -18zM300 295v-270
q0 -10 -7 -17.5t-18 -7.5v0q-10 0 -17.5 7.5t-7.5 17.5v270q0 11 7.5 18t17.5 7v0q11 0 18 -7t7 -18zM550 395v-270q0 -10 -7 -17.5t-18 -7.5v0q-10 0 -17.5 7.5t-7.5 17.5v270q0 11 7.5 18t17.5 7v0q11 0 18 -7t7 -18zM296 11v0q-3 -9 -12.5 -13t-19.5 0l-248 102
q-10 4 -14 14t-1 19v0q5 10 14.5 13.5t18.5 0.5l248 -103q11 -4 14.5 -13.5t-0.5 -19.5zM254 11q-4 10 -0.5 19.5t14.5 13.5l248 103q9 3 18.5 -0.5t14.5 -13.5v0q3 -9 -1 -19t-14 -14l-248 -102q-10 -4 -19.5 0t-12.5 13v0z" />
    <glyph glyph-name="one" unicode="1" horiz-adv-x="350" 
d="M4 511v0q3 9 12.5 13t19.5 0l248 -102q10 -4 14 -14t1 -19v0q-5 -10 -14.5 -13.5t-18.5 -0.5l-248 103q-11 4 -14.5 13.5t0.5 19.5zM300 395v-270q0 -10 -7 -17.5t-18 -7.5v0q-10 0 -17.5 7.5t-7.5 17.5v270q0 11 7.5 18t17.5 7v0q11 0 18 -7t7 -18z" />
    <glyph glyph-name="two" unicode="2" horiz-adv-x="600" 
d="M296 511q4 -10 0.5 -19.5t-14.5 -13.5l-248 -103q-9 -3 -18.5 0.5t-14.5 13.5v0q-3 9 1 19t14 14l248 102q10 4 19.5 0t12.5 -13v0zM254 511v0q3 9 12.5 13t19.5 0l248 -102q10 -4 14 -14t1 -19v0q-5 -10 -14.5 -13.5t-18.5 -0.5l-248 103q-11 4 -14.5 13.5t0.5 19.5z
M254 285q-4 10 -0.5 19.5t14.5 13.5l248 103q9 3 18.5 -0.5t14.5 -13.5v0q3 -9 -1 -19t-14 -14l-248 -102q-10 -4 -19.5 0t-12.5 13v0zM300 295v-270q0 -10 -7 -17.5t-18 -7.5v0q-10 0 -17.5 7.5t-7.5 17.5v270q0 11 7.5 18t17.5 7v0q11 0 18 -7t7 -18zM254 11
q-4 10 -0.5 19.5t14.5 13.5l248 103q9 3 18.5 -0.5t14.5 -13.5v0q3 -9 -1 -19t-14 -14l-248 -102q-10 -4 -19.5 0t-12.5 13v0z" />
    <glyph glyph-name="three" unicode="3" horiz-adv-x="600" 
d="M296 511q4 -10 0.5 -19.5t-14.5 -13.5l-248 -103q-9 -3 -18.5 0.5t-14.5 13.5v0q-3 9 1 19t14 14l248 102q10 4 19.5 0t12.5 -13v0zM254 511v0q3 9 12.5 13t19.5 0l248 -102q10 -4 14 -14t1 -19v0q-5 -10 -14.5 -13.5t-18.5 -0.5l-248 103q-11 4 -14.5 13.5t0.5 19.5z
M254 285q-4 10 -0.5 19.5t14.5 13.5l248 103q9 3 18.5 -0.5t14.5 -13.5v0q3 -9 -1 -19t-14 -14l-248 -102q-10 -4 -19.5 0t-12.5 13v0zM550 395v-270q0 -10 -7 -17.5t-18 -7.5v0q-10 0 -17.5 7.5t-7.5 17.5v270q0 11 7.5 18t17.5 7v0q11 0 18 -7t7 -18zM254 11
q-4 10 -0.5 19.5t14.5 13.5l248 103q9 3 18.5 -0.5t14.5 -13.5v0q3 -9 -1 -19t-14 -14l-248 -102q-10 -4 -19.5 0t-12.5 13v0z" />
    <glyph glyph-name="four" unicode="4" horiz-adv-x="600" 
d="M254 511v0q3 9 12.5 13t19.5 0l248 -102q10 -4 14 -14t1 -19v0q-5 -10 -14.5 -13.5t-18.5 -0.5l-248 103q-11 4 -14.5 13.5t0.5 19.5zM296 285v0q-3 -9 -12.5 -13t-19.5 0l-248 102q-10 4 -14 14t-1 19v0q5 10 14.5 13.5t18.5 0.5l248 -103q11 -4 14.5 -13.5t-0.5 -19.5z
M254 285q-4 10 -0.5 19.5t14.5 13.5l248 103q9 3 18.5 -0.5t14.5 -13.5v0q3 -9 -1 -19t-14 -14l-248 -102q-10 -4 -19.5 0t-12.5 13v0zM550 395v-270q0 -10 -7 -17.5t-18 -7.5v0q-10 0 -17.5 7.5t-7.5 17.5v270q0 11 7.5 18t17.5 7v0q11 0 18 -7t7 -18z" />
    <glyph glyph-name="five" unicode="5" horiz-adv-x="600" 
d="M296 511q4 -10 0.5 -19.5t-14.5 -13.5l-248 -103q-9 -3 -18.5 0.5t-14.5 13.5v0q-3 9 1 19t14 14l248 102q10 4 19.5 0t12.5 -13v0zM296 285v0q-3 -9 -12.5 -13t-19.5 0l-248 102q-10 4 -14 14t-1 19v0q5 10 14.5 13.5t18.5 0.5l248 -103q11 -4 14.5 -13.5t-0.5 -19.5z
M254 285q-4 10 -0.5 19.5t14.5 13.5l248 103q9 3 18.5 -0.5t14.5 -13.5v0q3 -9 -1 -19t-14 -14l-248 -102q-10 -4 -19.5 0t-12.5 13v0zM550 395v-270q0 -10 -7 -17.5t-18 -7.5v0q-10 0 -17.5 7.5t-7.5 17.5v270q0 11 7.5 18t17.5 7v0q11 0 18 -7t7 -18zM254 11
q-4 10 -0.5 19.5t14.5 13.5l248 103q9 3 18.5 -0.5t14.5 -13.5v0q3 -9 -1 -19t-14 -14l-248 -102q-10 -4 -19.5 0t-12.5 13v0z" />
    <glyph glyph-name="six" unicode="6" horiz-adv-x="600" 
d="M296 511q4 -10 0.5 -19.5t-14.5 -13.5l-248 -103q-9 -3 -18.5 0.5t-14.5 13.5v0q-3 9 1 19t14 14l248 102q10 4 19.5 0t12.5 -13v0zM254 511v0q3 9 12.5 13t19.5 0l248 -102q10 -4 14 -14t1 -19v0q-5 -10 -14.5 -13.5t-18.5 -0.5l-248 103q-11 4 -14.5 13.5t0.5 19.5z
M296 285v0q-3 -9 -12.5 -13t-19.5 0l-248 102q-10 4 -14 14t-1 19v0q5 10 14.5 13.5t18.5 0.5l248 -103q11 -4 14.5 -13.5t-0.5 -19.5zM50 395v-270q0 -10 -7 -17.5t-18 -7.5v0q-10 0 -17.5 7.5t-7.5 17.5v270q0 11 7.5 18t17.5 7v0q11 0 18 -7t7 -18zM300 295v-270
q0 -10 -7 -17.5t-18 -7.5v0q-10 0 -17.5 7.5t-7.5 17.5v270q0 11 7.5 18t17.5 7v0q11 0 18 -7t7 -18zM296 11v0q-3 -9 -12.5 -13t-19.5 0l-248 102q-10 4 -14 14t-1 19v0q5 10 14.5 13.5t18.5 0.5l248 -103q11 -4 14.5 -13.5t-0.5 -19.5z" />
    <glyph glyph-name="seven" unicode="7" horiz-adv-x="600" 
d="M296 511q4 -10 0.5 -19.5t-14.5 -13.5l-248 -103q-9 -3 -18.5 0.5t-14.5 13.5v0q-3 9 1 19t14 14l248 102q10 4 19.5 0t12.5 -13v0zM254 511v0q3 9 12.5 13t19.5 0l248 -102q10 -4 14 -14t1 -19v0q-5 -10 -14.5 -13.5t-18.5 -0.5l-248 103q-11 4 -14.5 13.5t0.5 19.5z
M296 285v0q-3 -9 -12.5 -13t-19.5 0l-248 102q-10 4 -14 14t-1 19v0q5 10 14.5 13.5t18.5 0.5l248 -103q11 -4 14.5 -13.5t-0.5 -19.5zM550 395v-270q0 -10 -7 -17.5t-18 -7.5v0q-10 0 -17.5 7.5t-7.5 17.5v270q0 11 7.5 18t17.5 7v0q11 0 18 -7t7 -18z" />
    <glyph glyph-name="eight" unicode="8" horiz-adv-x="600" 
d="M296 511q4 -10 0.5 -19.5t-14.5 -13.5l-248 -103q-9 -3 -18.5 0.5t-14.5 13.5v0q-3 9 1 19t14 14l248 102q10 4 19.5 0t12.5 -13v0zM254 511v0q3 9 12.5 13t19.5 0l248 -102q10 -4 14 -14t1 -19v0q-5 -10 -14.5 -13.5t-18.5 -0.5l-248 103q-11 4 -14.5 13.5t0.5 19.5z
M296 285v0q-3 -9 -12.5 -13t-19.5 0l-248 102q-10 4 -14 14t-1 19v0q5 10 14.5 13.5t18.5 0.5l248 -103q11 -4 14.5 -13.5t-0.5 -19.5zM254 285q-4 10 -0.5 19.5t14.5 13.5l248 103q9 3 18.5 -0.5t14.5 -13.5v0q3 -9 -1 -19t-14 -14l-248 -102q-10 -4 -19.5 0t-12.5 13v0z
M300 295v-270q0 -10 -7 -17.5t-18 -7.5v0q-10 0 -17.5 7.5t-7.5 17.5v270q0 11 7.5 18t17.5 7v0q11 0 18 -7t7 -18zM550 395v-270q0 -10 -7 -17.5t-18 -7.5v0q-10 0 -17.5 7.5t-7.5 17.5v270q0 11 7.5 18t17.5 7v0q11 0 18 -7t7 -18zM254 11q-4 10 -0.5 19.5t14.5 13.5
l248 103q9 3 18.5 -0.5t14.5 -13.5v0q3 -9 -1 -19t-14 -14l-248 -102q-10 -4 -19.5 0t-12.5 13v0z" />
    <glyph glyph-name="nine" unicode="9" horiz-adv-x="600" 
d="M296 511q4 -10 0.5 -19.5t-14.5 -13.5l-248 -103q-9 -3 -18.5 0.5t-14.5 13.5v0q-3 9 1 19t14 14l248 102q10 4 19.5 0t12.5 -13v0zM254 511v0q3 9 12.5 13t19.5 0l248 -102q10 -4 14 -14t1 -19v0q-5 -10 -14.5 -13.5t-18.5 -0.5l-248 103q-11 4 -14.5 13.5t0.5 19.5z
M296 285v0q-3 -9 -12.5 -13t-19.5 0l-248 102q-10 4 -14 14t-1 19v0q5 10 14.5 13.5t18.5 0.5l248 -103q11 -4 14.5 -13.5t-0.5 -19.5zM254 285q-4 10 -0.5 19.5t14.5 13.5l248 103q9 3 18.5 -0.5t14.5 -13.5v0q3 -9 -1 -19t-14 -14l-248 -102q-10 -4 -19.5 0t-12.5 13v0z
M300 295v-270q0 -10 -7 -17.5t-18 -7.5v0q-10 0 -17.5 7.5t-7.5 17.5v270q0 11 7.5 18t17.5 7v0q11 0 18 -7t7 -18z" />
    <glyph glyph-name="colon" unicode=":" horiz-adv-x="350" 
d="M296 285v0q-3 -9 -12.5 -13t-19.5 0l-248 102q-10 4 -14 14t-1 19v0q5 10 14.5 13.5t18.5 0.5l248 -103q11 -4 14.5 -13.5t-0.5 -19.5zM296 11v0q-3 -9 -12.5 -13t-19.5 0l-248 102q-10 4 -14 14t-1 19v0q5 10 14.5 13.5t18.5 0.5l248 -103q11 -4 14.5 -13.5t-0.5 -19.5z
" />
    <glyph glyph-name="semicolon" unicode=";" horiz-adv-x="350" 
d="M2 285q-4 10 -0.5 19.5t14.5 13.5l248 103q9 3 18.5 -0.5t14.5 -13.5v0q3 -9 -1 -19t-14 -14l-248 -102q-10 -4 -19.5 0t-12.5 13v0zM2 11q-4 10 -0.5 19.5t14.5 13.5l248 103q9 3 18.5 -0.5t14.5 -13.5v0q3 -9 -1 -19t-14 -14l-248 -102q-10 -4 -19.5 0t-12.5 13v0z" />
    <glyph glyph-name="less" unicode="&#x3c;" horiz-adv-x="350" 
d="M296 511q4 -10 0.5 -19.5t-14.5 -13.5l-248 -103q-9 -3 -18.5 0.5t-14.5 13.5v0q-3 9 1 19t14 14l248 102q10 4 19.5 0t12.5 -13v0zM50 395v-270q0 -10 -7 -17.5t-18 -7.5v0q-10 0 -17.5 7.5t-7.5 17.5v270q0 11 7.5 18t17.5 7v0q11 0 18 -7t7 -18zM296 11v0
q-3 -9 -12.5 -13t-19.5 0l-248 102q-10 4 -14 14t-1 19v0q5 10 14.5 13.5t18.5 0.5l248 -103q11 -4 14.5 -13.5t-0.5 -19.5z" />
    <glyph glyph-name="equal" unicode="=" 
d="M296 285v0q-3 -9 -12.5 -13t-19.5 0l-248 102q-10 4 -14 14t-1 19v0q5 10 14.5 13.5t18.5 0.5l248 -103q11 -4 14.5 -13.5t-0.5 -19.5zM296 11v0q-3 -9 -12.5 -13t-19.5 0l-248 102q-10 4 -14 14t-1 19v0q5 10 14.5 13.5t18.5 0.5l248 -103q11 -4 14.5 -13.5t-0.5 -19.5z
" />
    <glyph glyph-name="greater" unicode="&#x3e;" horiz-adv-x="350" 
d="M4 511v0q3 9 12.5 13t19.5 0l248 -102q10 -4 14 -14t1 -19v0q-5 -10 -14.5 -13.5t-18.5 -0.5l-248 103q-11 4 -14.5 13.5t0.5 19.5zM300 395v-270q0 -10 -7 -17.5t-18 -7.5v0q-10 0 -17.5 7.5t-7.5 17.5v270q0 11 7.5 18t17.5 7v0q11 0 18 -7t7 -18zM4 11
q-4 10 -0.5 19.5t14.5 13.5l248 103q9 3 18.5 -0.5t14.5 -13.5v0q3 -9 -1 -19t-14 -14l-248 -102q-10 -4 -19.5 0t-12.5 13v0z" />
    <glyph glyph-name="question" unicode="?" horiz-adv-x="600" 
d="M296 511q4 -10 0.5 -19.5t-14.5 -13.5l-248 -103q-9 -3 -18.5 0.5t-14.5 13.5v0q-3 9 1 19t14 14l248 102q10 4 19.5 0t12.5 -13v0zM254 511v0q3 9 12.5 13t19.5 0l248 -102q10 -4 14 -14t1 -19v0q-5 -10 -14.5 -13.5t-18.5 -0.5l-248 103q-11 4 -14.5 13.5t0.5 19.5z
M254 285q-4 10 -0.5 19.5t14.5 13.5l248 103q9 3 18.5 -0.5t14.5 -13.5v0q3 -9 -1 -19t-14 -14l-248 -102q-10 -4 -19.5 0t-12.5 13v0zM300 295v-270q0 -10 -7 -17.5t-18 -7.5v0q-10 0 -17.5 7.5t-7.5 17.5v270q0 11 7.5 18t17.5 7v0q11 0 18 -7t7 -18z" />
    <glyph glyph-name="at" unicode="@" horiz-adv-x="600" 
d="M296 511q4 -10 0.5 -19.5t-14.5 -13.5l-248 -103q-9 -3 -18.5 0.5t-14.5 13.5v0q-3 9 1 19t14 14l248 102q10 4 19.5 0t12.5 -13v0zM254 511v0q3 9 12.5 13t19.5 0l248 -102q10 -4 14 -14t1 -19v0q-5 -10 -14.5 -13.5t-18.5 -0.5l-248 103q-11 4 -14.5 13.5t0.5 19.5z
M254 285q-4 10 -0.5 19.5t14.5 13.5l248 103q9 3 18.5 -0.5t14.5 -13.5v0q3 -9 -1 -19t-14 -14l-248 -102q-10 -4 -19.5 0t-12.5 13v0zM50 395v-270q0 -10 -7 -17.5t-18 -7.5v0q-10 0 -17.5 7.5t-7.5 17.5v270q0 11 7.5 18t17.5 7v0q11 0 18 -7t7 -18zM300 295v-270
q0 -10 -7 -17.5t-18 -7.5v0q-10 0 -17.5 7.5t-7.5 17.5v270q0 11 7.5 18t17.5 7v0q11 0 18 -7t7 -18zM550 395v-270q0 -10 -7 -17.5t-18 -7.5v0q-10 0 -17.5 7.5t-7.5 17.5v270q0 11 7.5 18t17.5 7v0q11 0 18 -7t7 -18zM254 11q-4 10 -0.5 19.5t14.5 13.5l248 103
q9 3 18.5 -0.5t14.5 -13.5v0q3 -9 -1 -19t-14 -14l-248 -102q-10 -4 -19.5 0t-12.5 13v0z" />
    <glyph glyph-name="A" unicode="A" horiz-adv-x="600" 
d="M296 511q4 -10 0.5 -19.5t-14.5 -13.5l-248 -103q-9 -3 -18.5 0.5t-14.5 13.5v0q-3 9 1 19t14 14l248 102q10 4 19.5 0t12.5 -13v0zM254 511v0q3 9 12.5 13t19.5 0l248 -102q10 -4 14 -14t1 -19v0q-5 -10 -14.5 -13.5t-18.5 -0.5l-248 103q-11 4 -14.5 13.5t0.5 19.5z
M296 285v0q-3 -9 -12.5 -13t-19.5 0l-248 102q-10 4 -14 14t-1 19v0q5 10 14.5 13.5t18.5 0.5l248 -103q11 -4 14.5 -13.5t-0.5 -19.5zM254 285q-4 10 -0.5 19.5t14.5 13.5l248 103q9 3 18.5 -0.5t14.5 -13.5v0q3 -9 -1 -19t-14 -14l-248 -102q-10 -4 -19.5 0t-12.5 13v0z
M50 395v-270q0 -10 -7 -17.5t-18 -7.5v0q-10 0 -17.5 7.5t-7.5 17.5v270q0 11 7.5 18t17.5 7v0q11 0 18 -7t7 -18zM300 295v-270q0 -10 -7 -17.5t-18 -7.5v0q-10 0 -17.5 7.5t-7.5 17.5v270q0 11 7.5 18t17.5 7v0q11 0 18 -7t7 -18z" />
    <glyph glyph-name="B" unicode="B" horiz-adv-x="600" 
d="M296 511q4 -10 0.5 -19.5t-14.5 -13.5l-248 -103q-9 -3 -18.5 0.5t-14.5 13.5v0q-3 9 1 19t14 14l248 102q10 4 19.5 0t12.5 -13v0zM254 511v0q3 9 12.5 13t19.5 0l248 -102q10 -4 14 -14t1 -19v0q-5 -10 -14.5 -13.5t-18.5 -0.5l-248 103q-11 4 -14.5 13.5t0.5 19.5z
M296 285v0q-3 -9 -12.5 -13t-19.5 0l-248 102q-10 4 -14 14t-1 19v0q5 10 14.5 13.5t18.5 0.5l248 -103q11 -4 14.5 -13.5t-0.5 -19.5zM254 285q-4 10 -0.5 19.5t14.5 13.5l248 103q9 3 18.5 -0.5t14.5 -13.5v0q3 -9 -1 -19t-14 -14l-248 -102q-10 -4 -19.5 0t-12.5 13v0z
M50 395v-270q0 -10 -7 -17.5t-18 -7.5v0q-10 0 -17.5 7.5t-7.5 17.5v270q0 11 7.5 18t17.5 7v0q11 0 18 -7t7 -18zM300 295v-270q0 -10 -7 -17.5t-18 -7.5v0q-10 0 -17.5 7.5t-7.5 17.5v270q0 11 7.5 18t17.5 7v0q11 0 18 -7t7 -18zM296 11v0q-3 -9 -12.5 -13t-19.5 0
l-248 102q-10 4 -14 14t-1 19v0q5 10 14.5 13.5t18.5 0.5l248 -103q11 -4 14.5 -13.5t-0.5 -19.5z" />
    <glyph glyph-name="C" unicode="C" horiz-adv-x="600" 
d="M296 511q4 -10 0.5 -19.5t-14.5 -13.5l-248 -103q-9 -3 -18.5 0.5t-14.5 13.5v0q-3 9 1 19t14 14l248 102q10 4 19.5 0t12.5 -13v0zM254 511v0q3 9 12.5 13t19.5 0l248 -102q10 -4 14 -14t1 -19v0q-5 -10 -14.5 -13.5t-18.5 -0.5l-248 103q-11 4 -14.5 13.5t0.5 19.5z
M50 395v-270q0 -10 -7 -17.5t-18 -7.5v0q-10 0 -17.5 7.5t-7.5 17.5v270q0 11 7.5 18t17.5 7v0q11 0 18 -7t7 -18zM296 11v0q-3 -9 -12.5 -13t-19.5 0l-248 102q-10 4 -14 14t-1 19v0q5 10 14.5 13.5t18.5 0.5l248 -103q11 -4 14.5 -13.5t-0.5 -19.5z" />
    <glyph glyph-name="D" unicode="D" horiz-adv-x="600" 
d="M296 511q4 -10 0.5 -19.5t-14.5 -13.5l-248 -103q-9 -3 -18.5 0.5t-14.5 13.5v0q-3 9 1 19t14 14l248 102q10 4 19.5 0t12.5 -13v0zM254 511v0q3 9 12.5 13t19.5 0l248 -102q10 -4 14 -14t1 -19v0q-5 -10 -14.5 -13.5t-18.5 -0.5l-248 103q-11 4 -14.5 13.5t0.5 19.5z
M296 285v0q-3 -9 -12.5 -13t-19.5 0l-248 102q-10 4 -14 14t-1 19v0q5 10 14.5 13.5t18.5 0.5l248 -103q11 -4 14.5 -13.5t-0.5 -19.5zM300 295v-270q0 -10 -7 -17.5t-18 -7.5v0q-10 0 -17.5 7.5t-7.5 17.5v270q0 11 7.5 18t17.5 7v0q11 0 18 -7t7 -18zM550 395v-270
q0 -10 -7 -17.5t-18 -7.5v0q-10 0 -17.5 7.5t-7.5 17.5v270q0 11 7.5 18t17.5 7v0q11 0 18 -7t7 -18zM254 11q-4 10 -0.5 19.5t14.5 13.5l248 103q9 3 18.5 -0.5t14.5 -13.5v0q3 -9 -1 -19t-14 -14l-248 -102q-10 -4 -19.5 0t-12.5 13v0z" />
    <glyph glyph-name="E" unicode="E" horiz-adv-x="600" 
d="M296 511q4 -10 0.5 -19.5t-14.5 -13.5l-248 -103q-9 -3 -18.5 0.5t-14.5 13.5v0q-3 9 1 19t14 14l248 102q10 4 19.5 0t12.5 -13v0zM254 511v0q3 9 12.5 13t19.5 0l248 -102q10 -4 14 -14t1 -19v0q-5 -10 -14.5 -13.5t-18.5 -0.5l-248 103q-11 4 -14.5 13.5t0.5 19.5z
M296 285v0q-3 -9 -12.5 -13t-19.5 0l-248 102q-10 4 -14 14t-1 19v0q5 10 14.5 13.5t18.5 0.5l248 -103q11 -4 14.5 -13.5t-0.5 -19.5zM50 395v-270q0 -10 -7 -17.5t-18 -7.5v0q-10 0 -17.5 7.5t-7.5 17.5v270q0 11 7.5 18t17.5 7v0q11 0 18 -7t7 -18zM296 11v0
q-3 -9 -12.5 -13t-19.5 0l-248 102q-10 4 -14 14t-1 19v0q5 10 14.5 13.5t18.5 0.5l248 -103q11 -4 14.5 -13.5t-0.5 -19.5z" />
    <glyph glyph-name="F" unicode="F" horiz-adv-x="600" 
d="M296 511q4 -10 0.5 -19.5t-14.5 -13.5l-248 -103q-9 -3 -18.5 0.5t-14.5 13.5v0q-3 9 1 19t14 14l248 102q10 4 19.5 0t12.5 -13v0zM254 511v0q3 9 12.5 13t19.5 0l248 -102q10 -4 14 -14t1 -19v0q-5 -10 -14.5 -13.5t-18.5 -0.5l-248 103q-11 4 -14.5 13.5t0.5 19.5z
M296 285v0q-3 -9 -12.5 -13t-19.5 0l-248 102q-10 4 -14 14t-1 19v0q5 10 14.5 13.5t18.5 0.5l248 -103q11 -4 14.5 -13.5t-0.5 -19.5zM50 395v-270q0 -10 -7 -17.5t-18 -7.5v0q-10 0 -17.5 7.5t-7.5 17.5v270q0 11 7.5 18t17.5 7v0q11 0 18 -7t7 -18z" />
    <glyph glyph-name="G" unicode="G" horiz-adv-x="600" 
d="M296 511q4 -10 0.5 -19.5t-14.5 -13.5l-248 -103q-9 -3 -18.5 0.5t-14.5 13.5v0q-3 9 1 19t14 14l248 102q10 4 19.5 0t12.5 -13v0zM254 285q-4 10 -0.5 19.5t14.5 13.5l248 103q9 3 18.5 -0.5t14.5 -13.5v0q3 -9 -1 -19t-14 -14l-248 -102q-10 -4 -19.5 0t-12.5 13v0z
M50 395v-270q0 -10 -7 -17.5t-18 -7.5v0q-10 0 -17.5 7.5t-7.5 17.5v270q0 11 7.5 18t17.5 7v0q11 0 18 -7t7 -18zM550 395v-270q0 -10 -7 -17.5t-18 -7.5v0q-10 0 -17.5 7.5t-7.5 17.5v270q0 11 7.5 18t17.5 7v0q11 0 18 -7t7 -18zM296 11v0q-3 -9 -12.5 -13t-19.5 0
l-248 102q-10 4 -14 14t-1 19v0q5 10 14.5 13.5t18.5 0.5l248 -103q11 -4 14.5 -13.5t-0.5 -19.5zM254 11q-4 10 -0.5 19.5t14.5 13.5l248 103q9 3 18.5 -0.5t14.5 -13.5v0q3 -9 -1 -19t-14 -14l-248 -102q-10 -4 -19.5 0t-12.5 13v0z" />
    <glyph glyph-name="H" unicode="H" horiz-adv-x="600" 
d="M254 511v0q3 9 12.5 13t19.5 0l248 -102q10 -4 14 -14t1 -19v0q-5 -10 -14.5 -13.5t-18.5 -0.5l-248 103q-11 4 -14.5 13.5t0.5 19.5zM296 285v0q-3 -9 -12.5 -13t-19.5 0l-248 102q-10 4 -14 14t-1 19v0q5 10 14.5 13.5t18.5 0.5l248 -103q11 -4 14.5 -13.5t-0.5 -19.5z
M254 285q-4 10 -0.5 19.5t14.5 13.5l248 103q9 3 18.5 -0.5t14.5 -13.5v0q3 -9 -1 -19t-14 -14l-248 -102q-10 -4 -19.5 0t-12.5 13v0zM300 295v-270q0 -10 -7 -17.5t-18 -7.5v0q-10 0 -17.5 7.5t-7.5 17.5v270q0 11 7.5 18t17.5 7v0q11 0 18 -7t7 -18zM550 395v-270
q0 -10 -7 -17.5t-18 -7.5v0q-10 0 -17.5 7.5t-7.5 17.5v270q0 11 7.5 18t17.5 7v0q11 0 18 -7t7 -18z" />
    <glyph glyph-name="I" unicode="I" horiz-adv-x="350" 
d="M296 511q4 -10 0.5 -19.5t-14.5 -13.5l-248 -103q-9 -3 -18.5 0.5t-14.5 13.5v0q-3 9 1 19t14 14l248 102q10 4 19.5 0t12.5 -13v0zM50 395v-270q0 -10 -7 -17.5t-18 -7.5v0q-10 0 -17.5 7.5t-7.5 17.5v270q0 11 7.5 18t17.5 7v0q11 0 18 -7t7 -18z" />
    <glyph glyph-name="J" unicode="J" horiz-adv-x="350" 
d="M4 511v0q3 9 12.5 13t19.5 0l248 -102q10 -4 14 -14t1 -19v0q-5 -10 -14.5 -13.5t-18.5 -0.5l-248 103q-11 4 -14.5 13.5t0.5 19.5zM50 295v-270q0 -10 -7 -17.5t-18 -7.5v0q-10 0 -17.5 7.5t-7.5 17.5v270q0 11 7.5 18t17.5 7v0q11 0 18 -7t7 -18zM300 395v-270
q0 -10 -7 -17.5t-18 -7.5v0q-10 0 -17.5 7.5t-7.5 17.5v270q0 11 7.5 18t17.5 7v0q11 0 18 -7t7 -18zM4 11q-4 10 -0.5 19.5t14.5 13.5l248 103q9 3 18.5 -0.5t14.5 -13.5v0q3 -9 -1 -19t-14 -14l-248 -102q-10 -4 -19.5 0t-12.5 13v0z" />
    <glyph glyph-name="K" unicode="K" horiz-adv-x="600" 
d="M296 511q4 -10 0.5 -19.5t-14.5 -13.5l-248 -103q-9 -3 -18.5 0.5t-14.5 13.5v0q-3 9 1 19t14 14l248 102q10 4 19.5 0t12.5 -13v0zM296 285v0q-3 -9 -12.5 -13t-19.5 0l-248 102q-10 4 -14 14t-1 19v0q5 10 14.5 13.5t18.5 0.5l248 -103q11 -4 14.5 -13.5t-0.5 -19.5z
M254 285q-4 10 -0.5 19.5t14.5 13.5l248 103q9 3 18.5 -0.5t14.5 -13.5v0q3 -9 -1 -19t-14 -14l-248 -102q-10 -4 -19.5 0t-12.5 13v0zM50 395v-270q0 -10 -7 -17.5t-18 -7.5v0q-10 0 -17.5 7.5t-7.5 17.5v270q0 11 7.5 18t17.5 7v0q11 0 18 -7t7 -18zM300 295v-270
q0 -10 -7 -17.5t-18 -7.5v0q-10 0 -17.5 7.5t-7.5 17.5v270q0 11 7.5 18t17.5 7v0q11 0 18 -7t7 -18zM254 11q-4 10 -0.5 19.5t14.5 13.5l248 103q9 3 18.5 -0.5t14.5 -13.5v0q3 -9 -1 -19t-14 -14l-248 -102q-10 -4 -19.5 0t-12.5 13v0z" />
    <glyph glyph-name="L" unicode="L" horiz-adv-x="600" 
d="M296 285v0q-3 -9 -12.5 -13t-19.5 0l-248 102q-10 4 -14 14t-1 19v0q5 10 14.5 13.5t18.5 0.5l248 -103q11 -4 14.5 -13.5t-0.5 -19.5zM300 295v-270q0 -10 -7 -17.5t-18 -7.5v0q-10 0 -17.5 7.5t-7.5 17.5v270q0 11 7.5 18t17.5 7v0q11 0 18 -7t7 -18zM254 11
q-4 10 -0.5 19.5t14.5 13.5l248 103q9 3 18.5 -0.5t14.5 -13.5v0q3 -9 -1 -19t-14 -14l-248 -102q-10 -4 -19.5 0t-12.5 13v0z" />
    <glyph glyph-name="M" unicode="M" horiz-adv-x="600" 
d="M296 511q4 -10 0.5 -19.5t-14.5 -13.5l-248 -103q-9 -3 -18.5 0.5t-14.5 13.5v0q-3 9 1 19t14 14l248 102q10 4 19.5 0t12.5 -13v0zM254 511v0q3 9 12.5 13t19.5 0l248 -102q10 -4 14 -14t1 -19v0q-5 -10 -14.5 -13.5t-18.5 -0.5l-248 103q-11 4 -14.5 13.5t0.5 19.5z
M296 285v0q-3 -9 -12.5 -13t-19.5 0l-248 102q-10 4 -14 14t-1 19v0q5 10 14.5 13.5t18.5 0.5l248 -103q11 -4 14.5 -13.5t-0.5 -19.5zM50 395v-270q0 -10 -7 -17.5t-18 -7.5v0q-10 0 -17.5 7.5t-7.5 17.5v270q0 11 7.5 18t17.5 7v0q11 0 18 -7t7 -18zM300 295v-270
q0 -10 -7 -17.5t-18 -7.5v0q-10 0 -17.5 7.5t-7.5 17.5v270q0 11 7.5 18t17.5 7v0q11 0 18 -7t7 -18zM550 395v-270q0 -10 -7 -17.5t-18 -7.5v0q-10 0 -17.5 7.5t-7.5 17.5v270q0 11 7.5 18t17.5 7v0q11 0 18 -7t7 -18z" />
    <glyph glyph-name="N" unicode="N" horiz-adv-x="600" 
d="M296 511q4 -10 0.5 -19.5t-14.5 -13.5l-248 -103q-9 -3 -18.5 0.5t-14.5 13.5v0q-3 9 1 19t14 14l248 102q10 4 19.5 0t12.5 -13v0zM254 511v0q3 9 12.5 13t19.5 0l248 -102q10 -4 14 -14t1 -19v0q-5 -10 -14.5 -13.5t-18.5 -0.5l-248 103q-11 4 -14.5 13.5t0.5 19.5z
M296 285v0q-3 -9 -12.5 -13t-19.5 0l-248 102q-10 4 -14 14t-1 19v0q5 10 14.5 13.5t18.5 0.5l248 -103q11 -4 14.5 -13.5t-0.5 -19.5zM300 295v-270q0 -10 -7 -17.5t-18 -7.5v0q-10 0 -17.5 7.5t-7.5 17.5v270q0 11 7.5 18t17.5 7v0q11 0 18 -7t7 -18zM550 395v-270
q0 -10 -7 -17.5t-18 -7.5v0q-10 0 -17.5 7.5t-7.5 17.5v270q0 11 7.5 18t17.5 7v0q11 0 18 -7t7 -18z" />
    <glyph glyph-name="O" unicode="O" horiz-adv-x="600" 
d="M296 511q4 -10 0.5 -19.5t-14.5 -13.5l-248 -103q-9 -3 -18.5 0.5t-14.5 13.5v0q-3 9 1 19t14 14l248 102q10 4 19.5 0t12.5 -13v0zM254 511v0q3 9 12.5 13t19.5 0l248 -102q10 -4 14 -14t1 -19v0q-5 -10 -14.5 -13.5t-18.5 -0.5l-248 103q-11 4 -14.5 13.5t0.5 19.5z
M254 285q-4 10 -0.5 19.5t14.5 13.5l248 103q9 3 18.5 -0.5t14.5 -13.5v0q3 -9 -1 -19t-14 -14l-248 -102q-10 -4 -19.5 0t-12.5 13v0zM50 395v-270q0 -10 -7 -17.5t-18 -7.5v0q-10 0 -17.5 7.5t-7.5 17.5v270q0 11 7.5 18t17.5 7v0q11 0 18 -7t7 -18zM300 295v-270
q0 -10 -7 -17.5t-18 -7.5v0q-10 0 -17.5 7.5t-7.5 17.5v270q0 11 7.5 18t17.5 7v0q11 0 18 -7t7 -18zM296 11v0q-3 -9 -12.5 -13t-19.5 0l-248 102q-10 4 -14 14t-1 19v0q5 10 14.5 13.5t18.5 0.5l248 -103q11 -4 14.5 -13.5t-0.5 -19.5z" />
    <glyph glyph-name="P" unicode="P" horiz-adv-x="600" 
d="M296 511q4 -10 0.5 -19.5t-14.5 -13.5l-248 -103q-9 -3 -18.5 0.5t-14.5 13.5v0q-3 9 1 19t14 14l248 102q10 4 19.5 0t12.5 -13v0zM254 511v0q3 9 12.5 13t19.5 0l248 -102q10 -4 14 -14t1 -19v0q-5 -10 -14.5 -13.5t-18.5 -0.5l-248 103q-11 4 -14.5 13.5t0.5 19.5z
M296 285v0q-3 -9 -12.5 -13t-19.5 0l-248 102q-10 4 -14 14t-1 19v0q5 10 14.5 13.5t18.5 0.5l248 -103q11 -4 14.5 -13.5t-0.5 -19.5zM254 285q-4 10 -0.5 19.5t14.5 13.5l248 103q9 3 18.5 -0.5t14.5 -13.5v0q3 -9 -1 -19t-14 -14l-248 -102q-10 -4 -19.5 0t-12.5 13v0z
M50 395v-270q0 -10 -7 -17.5t-18 -7.5v0q-10 0 -17.5 7.5t-7.5 17.5v270q0 11 7.5 18t17.5 7v0q11 0 18 -7t7 -18z" />
    <glyph glyph-name="Q" unicode="Q" horiz-adv-x="600" 
d="M296 511q4 -10 0.5 -19.5t-14.5 -13.5l-248 -103q-9 -3 -18.5 0.5t-14.5 13.5v0q-3 9 1 19t14 14l248 102q10 4 19.5 0t12.5 -13v0zM254 511v0q3 9 12.5 13t19.5 0l248 -102q10 -4 14 -14t1 -19v0q-5 -10 -14.5 -13.5t-18.5 -0.5l-248 103q-11 4 -14.5 13.5t0.5 19.5z
M254 285q-4 10 -0.5 19.5t14.5 13.5l248 103q9 3 18.5 -0.5t14.5 -13.5v0q3 -9 -1 -19t-14 -14l-248 -102q-10 -4 -19.5 0t-12.5 13v0zM50 395v-270q0 -10 -7 -17.5t-18 -7.5v0q-10 0 -17.5 7.5t-7.5 17.5v270q0 11 7.5 18t17.5 7v0q11 0 18 -7t7 -18zM300 295v-270
q0 -10 -7 -17.5t-18 -7.5v0q-10 0 -17.5 7.5t-7.5 17.5v270q0 11 7.5 18t17.5 7v0q11 0 18 -7t7 -18zM296 11v0q-3 -9 -12.5 -13t-19.5 0l-248 102q-10 4 -14 14t-1 19v0q5 10 14.5 13.5t18.5 0.5l248 -103q11 -4 14.5 -13.5t-0.5 -19.5zM254 11q-4 10 -0.5 19.5t14.5 13.5
l248 103q9 3 18.5 -0.5t14.5 -13.5v0q3 -9 -1 -19t-14 -14l-248 -102q-10 -4 -19.5 0t-12.5 13v0z" />
    <glyph glyph-name="R" unicode="R" horiz-adv-x="600" 
d="M296 511q4 -10 0.5 -19.5t-14.5 -13.5l-248 -103q-9 -3 -18.5 0.5t-14.5 13.5v0q-3 9 1 19t14 14l248 102q10 4 19.5 0t12.5 -13v0zM254 511v0q3 9 12.5 13t19.5 0l248 -102q10 -4 14 -14t1 -19v0q-5 -10 -14.5 -13.5t-18.5 -0.5l-248 103q-11 4 -14.5 13.5t0.5 19.5z
M296 285v0q-3 -9 -12.5 -13t-19.5 0l-248 102q-10 4 -14 14t-1 19v0q5 10 14.5 13.5t18.5 0.5l248 -103q11 -4 14.5 -13.5t-0.5 -19.5zM254 285q-4 10 -0.5 19.5t14.5 13.5l248 103q9 3 18.5 -0.5t14.5 -13.5v0q3 -9 -1 -19t-14 -14l-248 -102q-10 -4 -19.5 0t-12.5 13v0z
M50 395v-270q0 -10 -7 -17.5t-18 -7.5v0q-10 0 -17.5 7.5t-7.5 17.5v270q0 11 7.5 18t17.5 7v0q11 0 18 -7t7 -18zM300 295v-270q0 -10 -7 -17.5t-18 -7.5v0q-10 0 -17.5 7.5t-7.5 17.5v270q0 11 7.5 18t17.5 7v0q11 0 18 -7t7 -18zM254 11q-4 10 -0.5 19.5t14.5 13.5
l248 103q9 3 18.5 -0.5t14.5 -13.5v0q3 -9 -1 -19t-14 -14l-248 -102q-10 -4 -19.5 0t-12.5 13v0z" />
    <glyph glyph-name="S" unicode="S" horiz-adv-x="600" 
d="M296 511q4 -10 0.5 -19.5t-14.5 -13.5l-248 -103q-9 -3 -18.5 0.5t-14.5 13.5v0q-3 9 1 19t14 14l248 102q10 4 19.5 0t12.5 -13v0zM296 285v0q-3 -9 -12.5 -13t-19.5 0l-248 102q-10 4 -14 14t-1 19v0q5 10 14.5 13.5t18.5 0.5l248 -103q11 -4 14.5 -13.5t-0.5 -19.5z
M254 285q-4 10 -0.5 19.5t14.5 13.5l248 103q9 3 18.5 -0.5t14.5 -13.5v0q3 -9 -1 -19t-14 -14l-248 -102q-10 -4 -19.5 0t-12.5 13v0zM550 395v-270q0 -10 -7 -17.5t-18 -7.5v0q-10 0 -17.5 7.5t-7.5 17.5v270q0 11 7.5 18t17.5 7v0q11 0 18 -7t7 -18zM296 11v0
q-3 -9 -12.5 -13t-19.5 0l-248 102q-10 4 -14 14t-1 19v0q5 10 14.5 13.5t18.5 0.5l248 -103q11 -4 14.5 -13.5t-0.5 -19.5zM254 11q-4 10 -0.5 19.5t14.5 13.5l248 103q9 3 18.5 -0.5t14.5 -13.5v0q3 -9 -1 -19t-14 -14l-248 -102q-10 -4 -19.5 0t-12.5 13v0z" />
    <glyph glyph-name="T" unicode="T" horiz-adv-x="350" 
d="M4 511v0q3 9 12.5 13t19.5 0l248 -102q10 -4 14 -14t1 -19v0q-5 -10 -14.5 -13.5t-18.5 -0.5l-248 103q-11 4 -14.5 13.5t0.5 19.5zM300 395v-270q0 -10 -7 -17.5t-18 -7.5v0q-10 0 -17.5 7.5t-7.5 17.5v270q0 11 7.5 18t17.5 7v0q11 0 18 -7t7 -18z" />
    <glyph glyph-name="U" unicode="U" horiz-adv-x="600" 
d="M296 511q4 -10 0.5 -19.5t-14.5 -13.5l-248 -103q-9 -3 -18.5 0.5t-14.5 13.5v0q-3 9 1 19t14 14l248 102q10 4 19.5 0t12.5 -13v0zM254 285q-4 10 -0.5 19.5t14.5 13.5l248 103q9 3 18.5 -0.5t14.5 -13.5v0q3 -9 -1 -19t-14 -14l-248 -102q-10 -4 -19.5 0t-12.5 13v0z
M50 395v-270q0 -10 -7 -17.5t-18 -7.5v0q-10 0 -17.5 7.5t-7.5 17.5v270q0 11 7.5 18t17.5 7v0q11 0 18 -7t7 -18zM300 295v-270q0 -10 -7 -17.5t-18 -7.5v0q-10 0 -17.5 7.5t-7.5 17.5v270q0 11 7.5 18t17.5 7v0q11 0 18 -7t7 -18zM296 11v0q-3 -9 -12.5 -13t-19.5 0
l-248 102q-10 4 -14 14t-1 19v0q5 10 14.5 13.5t18.5 0.5l248 -103q11 -4 14.5 -13.5t-0.5 -19.5z" />
    <glyph glyph-name="V" unicode="V" horiz-adv-x="600" 
d="M50 395v-270q0 -10 -7 -17.5t-18 -7.5v0q-10 0 -17.5 7.5t-7.5 17.5v270q0 11 7.5 18t17.5 7v0q11 0 18 -7t7 -18zM550 395v-270q0 -10 -7 -17.5t-18 -7.5v0q-10 0 -17.5 7.5t-7.5 17.5v270q0 11 7.5 18t17.5 7v0q11 0 18 -7t7 -18zM296 11v0q-3 -9 -12.5 -13t-19.5 0
l-248 102q-10 4 -14 14t-1 19v0q5 10 14.5 13.5t18.5 0.5l248 -103q11 -4 14.5 -13.5t-0.5 -19.5zM254 11q-4 10 -0.5 19.5t14.5 13.5l248 103q9 3 18.5 -0.5t14.5 -13.5v0q3 -9 -1 -19t-14 -14l-248 -102q-10 -4 -19.5 0t-12.5 13v0z" />
    <glyph glyph-name="W" unicode="W" horiz-adv-x="600" 
d="M296 511q4 -10 0.5 -19.5t-14.5 -13.5l-248 -103q-9 -3 -18.5 0.5t-14.5 13.5v0q-3 9 1 19t14 14l248 102q10 4 19.5 0t12.5 -13v0zM254 285q-4 10 -0.5 19.5t14.5 13.5l248 103q9 3 18.5 -0.5t14.5 -13.5v0q3 -9 -1 -19t-14 -14l-248 -102q-10 -4 -19.5 0t-12.5 13v0z
M50 395v-270q0 -10 -7 -17.5t-18 -7.5v0q-10 0 -17.5 7.5t-7.5 17.5v270q0 11 7.5 18t17.5 7v0q11 0 18 -7t7 -18zM300 295v-270q0 -10 -7 -17.5t-18 -7.5v0q-10 0 -17.5 7.5t-7.5 17.5v270q0 11 7.5 18t17.5 7v0q11 0 18 -7t7 -18zM296 11v0q-3 -9 -12.5 -13t-19.5 0
l-248 102q-10 4 -14 14t-1 19v0q5 10 14.5 13.5t18.5 0.5l248 -103q11 -4 14.5 -13.5t-0.5 -19.5zM254 11q-4 10 -0.5 19.5t14.5 13.5l248 103q9 3 18.5 -0.5t14.5 -13.5v0q3 -9 -1 -19t-14 -14l-248 -102q-10 -4 -19.5 0t-12.5 13v0z" />
    <glyph glyph-name="X" unicode="X" horiz-adv-x="600" 
d="M296 285v0q-3 -9 -12.5 -13t-19.5 0l-248 102q-10 4 -14 14t-1 19v0q5 10 14.5 13.5t18.5 0.5l248 -103q11 -4 14.5 -13.5t-0.5 -19.5zM254 285q-4 10 -0.5 19.5t14.5 13.5l248 103q9 3 18.5 -0.5t14.5 -13.5v0q3 -9 -1 -19t-14 -14l-248 -102q-10 -4 -19.5 0t-12.5 13v0
zM300 295v-270q0 -10 -7 -17.5t-18 -7.5v0q-10 0 -17.5 7.5t-7.5 17.5v270q0 11 7.5 18t17.5 7v0q11 0 18 -7t7 -18zM296 11v0q-3 -9 -12.5 -13t-19.5 0l-248 102q-10 4 -14 14t-1 19v0q5 10 14.5 13.5t18.5 0.5l248 -103q11 -4 14.5 -13.5t-0.5 -19.5zM254 11
q-4 10 -0.5 19.5t14.5 13.5l248 103q9 3 18.5 -0.5t14.5 -13.5v0q3 -9 -1 -19t-14 -14l-248 -102q-10 -4 -19.5 0t-12.5 13v0z" />
    <glyph glyph-name="Y" unicode="Y" horiz-adv-x="600" 
d="M296 285v0q-3 -9 -12.5 -13t-19.5 0l-248 102q-10 4 -14 14t-1 19v0q5 10 14.5 13.5t18.5 0.5l248 -103q11 -4 14.5 -13.5t-0.5 -19.5zM254 285q-4 10 -0.5 19.5t14.5 13.5l248 103q9 3 18.5 -0.5t14.5 -13.5v0q3 -9 -1 -19t-14 -14l-248 -102q-10 -4 -19.5 0t-12.5 13v0
zM300 295v-270q0 -10 -7 -17.5t-18 -7.5v0q-10 0 -17.5 7.5t-7.5 17.5v270q0 11 7.5 18t17.5 7v0q11 0 18 -7t7 -18z" />
    <glyph glyph-name="Z" unicode="Z" horiz-adv-x="600" 
d="M254 511v0q3 9 12.5 13t19.5 0l248 -102q10 -4 14 -14t1 -19v0q-5 -10 -14.5 -13.5t-18.5 -0.5l-248 103q-11 4 -14.5 13.5t0.5 19.5zM296 285v0q-3 -9 -12.5 -13t-19.5 0l-248 102q-10 4 -14 14t-1 19v0q5 10 14.5 13.5t18.5 0.5l248 -103q11 -4 14.5 -13.5t-0.5 -19.5z
M254 285q-4 10 -0.5 19.5t14.5 13.5l248 103q9 3 18.5 -0.5t14.5 -13.5v0q3 -9 -1 -19t-14 -14l-248 -102q-10 -4 -19.5 0t-12.5 13v0zM50 395v-270q0 -10 -7 -17.5t-18 -7.5v0q-10 0 -17.5 7.5t-7.5 17.5v270q0 11 7.5 18t17.5 7v0q11 0 18 -7t7 -18zM296 11v0
q-3 -9 -12.5 -13t-19.5 0l-248 102q-10 4 -14 14t-1 19v0q5 10 14.5 13.5t18.5 0.5l248 -103q11 -4 14.5 -13.5t-0.5 -19.5zM254 11q-4 10 -0.5 19.5t14.5 13.5l248 103q9 3 18.5 -0.5t14.5 -13.5v0q3 -9 -1 -19t-14 -14l-248 -102q-10 -4 -19.5 0t-12.5 13v0z" />
    <glyph glyph-name="bracketleft" unicode="[" horiz-adv-x="350" 
d="M296 511q4 -10 0.5 -19.5t-14.5 -13.5l-248 -103q-9 -3 -18.5 0.5t-14.5 13.5v0q-3 9 1 19t14 14l248 102q10 4 19.5 0t12.5 -13v0zM50 395v-270q0 -10 -7 -17.5t-18 -7.5v0q-10 0 -17.5 7.5t-7.5 17.5v270q0 11 7.5 18t17.5 7v0q11 0 18 -7t7 -18zM296 11v0
q-3 -9 -12.5 -13t-19.5 0l-248 102q-10 4 -14 14t-1 19v0q5 10 14.5 13.5t18.5 0.5l248 -103q11 -4 14.5 -13.5t-0.5 -19.5z" />
    <glyph glyph-name="backslash" unicode="\" 
 />
    <glyph glyph-name="bracketright" unicode="]" horiz-adv-x="350" 
d="M4 511v0q3 9 12.5 13t19.5 0l248 -102q10 -4 14 -14t1 -19v0q-5 -10 -14.5 -13.5t-18.5 -0.5l-248 103q-11 4 -14.5 13.5t0.5 19.5zM300 395v-270q0 -10 -7 -17.5t-18 -7.5v0q-10 0 -17.5 7.5t-7.5 17.5v270q0 11 7.5 18t17.5 7v0q11 0 18 -7t7 -18zM4 11
q-4 10 -0.5 19.5t14.5 13.5l248 103q9 3 18.5 -0.5t14.5 -13.5v0q3 -9 -1 -19t-14 -14l-248 -102q-10 -4 -19.5 0t-12.5 13v0z" />
    <glyph glyph-name="asciicircum" unicode="^" 
 />
    <glyph glyph-name="underscore" unicode="_" 
 />
    <glyph glyph-name="grave" unicode="`" 
 />
    <glyph glyph-name="a" unicode="a" horiz-adv-x="600" 
d="M254 511v0q3 9 12.5 13t19.5 0l248 -102q10 -4 14 -14t1 -19v0q-5 -10 -14.5 -13.5t-18.5 -0.5l-248 103q-11 4 -14.5 13.5t0.5 19.5zM296 285v0q-3 -9 -12.5 -13t-19.5 0l-248 102q-10 4 -14 14t-1 19v0q5 10 14.5 13.5t18.5 0.5l248 -103q11 -4 14.5 -13.5t-0.5 -19.5z
M254 285q-4 10 -0.5 19.5t14.5 13.5l248 103q9 3 18.5 -0.5t14.5 -13.5v0q3 -9 -1 -19t-14 -14l-248 -102q-10 -4 -19.5 0t-12.5 13v0zM50 395v-270q0 -10 -7 -17.5t-18 -7.5v0q-10 0 -17.5 7.5t-7.5 17.5v270q0 11 7.5 18t17.5 7v0q11 0 18 -7t7 -18zM300 295v-270
q0 -10 -7 -17.5t-18 -7.5v0q-10 0 -17.5 7.5t-7.5 17.5v270q0 11 7.5 18t17.5 7v0q11 0 18 -7t7 -18zM296 11v0q-3 -9 -12.5 -13t-19.5 0l-248 102q-10 4 -14 14t-1 19v0q5 10 14.5 13.5t18.5 0.5l248 -103q11 -4 14.5 -13.5t-0.5 -19.5z" />
    <glyph glyph-name="b" unicode="b" horiz-adv-x="350" 
d="M296 511q4 -10 0.5 -19.5t-14.5 -13.5l-248 -103q-9 -3 -18.5 0.5t-14.5 13.5v0q-3 9 1 19t14 14l248 102q10 4 19.5 0t12.5 -13v0zM296 285v0q-3 -9 -12.5 -13t-19.5 0l-248 102q-10 4 -14 14t-1 19v0q5 10 14.5 13.5t18.5 0.5l248 -103q11 -4 14.5 -13.5t-0.5 -19.5z
M50 395v-270q0 -10 -7 -17.5t-18 -7.5v0q-10 0 -17.5 7.5t-7.5 17.5v270q0 11 7.5 18t17.5 7v0q11 0 18 -7t7 -18zM300 295v-270q0 -10 -7 -17.5t-18 -7.5v0q-10 0 -17.5 7.5t-7.5 17.5v270q0 11 7.5 18t17.5 7v0q11 0 18 -7t7 -18zM296 11v0q-3 -9 -12.5 -13t-19.5 0
l-248 102q-10 4 -14 14t-1 19v0q5 10 14.5 13.5t18.5 0.5l248 -103q11 -4 14.5 -13.5t-0.5 -19.5z" />
    <glyph glyph-name="c" unicode="c" horiz-adv-x="350" 
d="M296 285v0q-3 -9 -12.5 -13t-19.5 0l-248 102q-10 4 -14 14t-1 19v0q5 10 14.5 13.5t18.5 0.5l248 -103q11 -4 14.5 -13.5t-0.5 -19.5zM50 395v-270q0 -10 -7 -17.5t-18 -7.5v0q-10 0 -17.5 7.5t-7.5 17.5v270q0 11 7.5 18t17.5 7v0q11 0 18 -7t7 -18zM296 11v0
q-3 -9 -12.5 -13t-19.5 0l-248 102q-10 4 -14 14t-1 19v0q5 10 14.5 13.5t18.5 0.5l248 -103q11 -4 14.5 -13.5t-0.5 -19.5z" />
    <glyph glyph-name="d" unicode="d" horiz-adv-x="350" 
d="M4 511v0q3 9 12.5 13t19.5 0l248 -102q10 -4 14 -14t1 -19v0q-5 -10 -14.5 -13.5t-18.5 -0.5l-248 103q-11 4 -14.5 13.5t0.5 19.5zM4 285q-4 10 -0.5 19.5t14.5 13.5l248 103q9 3 18.5 -0.5t14.5 -13.5v0q3 -9 -1 -19t-14 -14l-248 -102q-10 -4 -19.5 0t-12.5 13v0z
M50 295v-270q0 -10 -7 -17.5t-18 -7.5v0q-10 0 -17.5 7.5t-7.5 17.5v270q0 11 7.5 18t17.5 7v0q11 0 18 -7t7 -18zM300 395v-270q0 -10 -7 -17.5t-18 -7.5v0q-10 0 -17.5 7.5t-7.5 17.5v270q0 11 7.5 18t17.5 7v0q11 0 18 -7t7 -18zM4 11q-4 10 -0.5 19.5t14.5 13.5l248 103
q9 3 18.5 -0.5t14.5 -13.5v0q3 -9 -1 -19t-14 -14l-248 -102q-10 -4 -19.5 0t-12.5 13v0z" />
    <glyph glyph-name="e" unicode="e" horiz-adv-x="600" 
d="M296 511q4 -10 0.5 -19.5t-14.5 -13.5l-248 -103q-9 -3 -18.5 0.5t-14.5 13.5v0q-3 9 1 19t14 14l248 102q10 4 19.5 0t12.5 -13v0zM254 511v0q3 9 12.5 13t19.5 0l248 -102q10 -4 14 -14t1 -19v0q-5 -10 -14.5 -13.5t-18.5 -0.5l-248 103q-11 4 -14.5 13.5t0.5 19.5z
M296 285v0q-3 -9 -12.5 -13t-19.5 0l-248 102q-10 4 -14 14t-1 19v0q5 10 14.5 13.5t18.5 0.5l248 -103q11 -4 14.5 -13.5t-0.5 -19.5zM254 285q-4 10 -0.5 19.5t14.5 13.5l248 103q9 3 18.5 -0.5t14.5 -13.5v0q3 -9 -1 -19t-14 -14l-248 -102q-10 -4 -19.5 0t-12.5 13v0z
M50 395v-270q0 -10 -7 -17.5t-18 -7.5v0q-10 0 -17.5 7.5t-7.5 17.5v270q0 11 7.5 18t17.5 7v0q11 0 18 -7t7 -18zM296 11v0q-3 -9 -12.5 -13t-19.5 0l-248 102q-10 4 -14 14t-1 19v0q5 10 14.5 13.5t18.5 0.5l248 -103q11 -4 14.5 -13.5t-0.5 -19.5z" />
    <glyph glyph-name="f" unicode="f" horiz-adv-x="600" 
d="M296 511q4 -10 0.5 -19.5t-14.5 -13.5l-248 -103q-9 -3 -18.5 0.5t-14.5 13.5v0q-3 9 1 19t14 14l248 102q10 4 19.5 0t12.5 -13v0zM254 511v0q3 9 12.5 13t19.5 0l248 -102q10 -4 14 -14t1 -19v0q-5 -10 -14.5 -13.5t-18.5 -0.5l-248 103q-11 4 -14.5 13.5t0.5 19.5z
M296 285v0q-3 -9 -12.5 -13t-19.5 0l-248 102q-10 4 -14 14t-1 19v0q5 10 14.5 13.5t18.5 0.5l248 -103q11 -4 14.5 -13.5t-0.5 -19.5zM50 395v-270q0 -10 -7 -17.5t-18 -7.5v0q-10 0 -17.5 7.5t-7.5 17.5v270q0 11 7.5 18t17.5 7v0q11 0 18 -7t7 -18z" />
    <glyph glyph-name="g" unicode="g" horiz-adv-x="600" 
d="M296 511q4 -10 0.5 -19.5t-14.5 -13.5l-248 -103q-9 -3 -18.5 0.5t-14.5 13.5v0q-3 9 1 19t14 14l248 102q10 4 19.5 0t12.5 -13v0zM254 511v0q3 9 12.5 13t19.5 0l248 -102q10 -4 14 -14t1 -19v0q-5 -10 -14.5 -13.5t-18.5 -0.5l-248 103q-11 4 -14.5 13.5t0.5 19.5z
M296 285v0q-3 -9 -12.5 -13t-19.5 0l-248 102q-10 4 -14 14t-1 19v0q5 10 14.5 13.5t18.5 0.5l248 -103q11 -4 14.5 -13.5t-0.5 -19.5zM254 285q-4 10 -0.5 19.5t14.5 13.5l248 103q9 3 18.5 -0.5t14.5 -13.5v0q3 -9 -1 -19t-14 -14l-248 -102q-10 -4 -19.5 0t-12.5 13v0z
M550 395v-270q0 -10 -7 -17.5t-18 -7.5v0q-10 0 -17.5 7.5t-7.5 17.5v270q0 11 7.5 18t17.5 7v0q11 0 18 -7t7 -18zM254 11q-4 10 -0.5 19.5t14.5 13.5l248 103q9 3 18.5 -0.5t14.5 -13.5v0q3 -9 -1 -19t-14 -14l-248 -102q-10 -4 -19.5 0t-12.5 13v0z" />
    <glyph glyph-name="h" unicode="h" horiz-adv-x="350" 
d="M296 511q4 -10 0.5 -19.5t-14.5 -13.5l-248 -103q-9 -3 -18.5 0.5t-14.5 13.5v0q-3 9 1 19t14 14l248 102q10 4 19.5 0t12.5 -13v0zM296 285v0q-3 -9 -12.5 -13t-19.5 0l-248 102q-10 4 -14 14t-1 19v0q5 10 14.5 13.5t18.5 0.5l248 -103q11 -4 14.5 -13.5t-0.5 -19.5z
M50 395v-270q0 -10 -7 -17.5t-18 -7.5v0q-10 0 -17.5 7.5t-7.5 17.5v270q0 11 7.5 18t17.5 7v0q11 0 18 -7t7 -18zM300 295v-270q0 -10 -7 -17.5t-18 -7.5v0q-10 0 -17.5 7.5t-7.5 17.5v270q0 11 7.5 18t17.5 7v0q11 0 18 -7t7 -18z" />
    <glyph glyph-name="i" unicode="i" horiz-adv-x="600" 
d="M254 511v0q3 9 12.5 13t19.5 0l248 -102q10 -4 14 -14t1 -19v0q-5 -10 -14.5 -13.5t-18.5 -0.5l-248 103q-11 4 -14.5 13.5t0.5 19.5zM296 285v0q-3 -9 -12.5 -13t-19.5 0l-248 102q-10 4 -14 14t-1 19v0q5 10 14.5 13.5t18.5 0.5l248 -103q11 -4 14.5 -13.5t-0.5 -19.5z
M300 295v-270q0 -10 -7 -17.5t-18 -7.5v0q-10 0 -17.5 7.5t-7.5 17.5v270q0 11 7.5 18t17.5 7v0q11 0 18 -7t7 -18z" />
    <glyph glyph-name="j" unicode="j" horiz-adv-x="600" 
d="M254 511v0q3 9 12.5 13t19.5 0l248 -102q10 -4 14 -14t1 -19v0q-5 -10 -14.5 -13.5t-18.5 -0.5l-248 103q-11 4 -14.5 13.5t0.5 19.5zM300 295v-270q0 -10 -7 -17.5t-18 -7.5v0q-10 0 -17.5 7.5t-7.5 17.5v270q0 11 7.5 18t17.5 7v0q11 0 18 -7t7 -18zM296 11v0
q-3 -9 -12.5 -13t-19.5 0l-248 102q-10 4 -14 14t-1 19v0q5 10 14.5 13.5t18.5 0.5l248 -103q11 -4 14.5 -13.5t-0.5 -19.5z" />
    <glyph glyph-name="k" unicode="k" horiz-adv-x="600" 
d="M296 511q4 -10 0.5 -19.5t-14.5 -13.5l-248 -103q-9 -3 -18.5 0.5t-14.5 13.5v0q-3 9 1 19t14 14l248 102q10 4 19.5 0t12.5 -13v0zM296 285v0q-3 -9 -12.5 -13t-19.5 0l-248 102q-10 4 -14 14t-1 19v0q5 10 14.5 13.5t18.5 0.5l248 -103q11 -4 14.5 -13.5t-0.5 -19.5z
M254 285q-4 10 -0.5 19.5t14.5 13.5l248 103q9 3 18.5 -0.5t14.5 -13.5v0q3 -9 -1 -19t-14 -14l-248 -102q-10 -4 -19.5 0t-12.5 13v0zM50 395v-270q0 -10 -7 -17.5t-18 -7.5v0q-10 0 -17.5 7.5t-7.5 17.5v270q0 11 7.5 18t17.5 7v0q11 0 18 -7t7 -18zM300 295v-270
q0 -10 -7 -17.5t-18 -7.5v0q-10 0 -17.5 7.5t-7.5 17.5v270q0 11 7.5 18t17.5 7v0q11 0 18 -7t7 -18z" />
    <glyph glyph-name="l" unicode="l" horiz-adv-x="350" 
d="M50 395v-270q0 -10 -7 -17.5t-18 -7.5v0q-10 0 -17.5 7.5t-7.5 17.5v270q0 11 7.5 18t17.5 7v0q11 0 18 -7t7 -18zM296 11v0q-3 -9 -12.5 -13t-19.5 0l-248 102q-10 4 -14 14t-1 19v0q5 10 14.5 13.5t18.5 0.5l248 -103q11 -4 14.5 -13.5t-0.5 -19.5z" />
    <glyph glyph-name="m" unicode="m" horiz-adv-x="600" 
d="M296 285v0q-3 -9 -12.5 -13t-19.5 0l-248 102q-10 4 -14 14t-1 19v0q5 10 14.5 13.5t18.5 0.5l248 -103q11 -4 14.5 -13.5t-0.5 -19.5zM254 285q-4 10 -0.5 19.5t14.5 13.5l248 103q9 3 18.5 -0.5t14.5 -13.5v0q3 -9 -1 -19t-14 -14l-248 -102q-10 -4 -19.5 0t-12.5 13v0
zM50 395v-270q0 -10 -7 -17.5t-18 -7.5v0q-10 0 -17.5 7.5t-7.5 17.5v270q0 11 7.5 18t17.5 7v0q11 0 18 -7t7 -18zM300 295v-270q0 -10 -7 -17.5t-18 -7.5v0q-10 0 -17.5 7.5t-7.5 17.5v270q0 11 7.5 18t17.5 7v0q11 0 18 -7t7 -18zM550 395v-270q0 -10 -7 -17.5t-18 -7.5
v0q-10 0 -17.5 7.5t-7.5 17.5v270q0 11 7.5 18t17.5 7v0q11 0 18 -7t7 -18z" />
    <glyph glyph-name="n" unicode="n" horiz-adv-x="350" 
d="M296 285v0q-3 -9 -12.5 -13t-19.5 0l-248 102q-10 4 -14 14t-1 19v0q5 10 14.5 13.5t18.5 0.5l248 -103q11 -4 14.5 -13.5t-0.5 -19.5zM50 395v-270q0 -10 -7 -17.5t-18 -7.5v0q-10 0 -17.5 7.5t-7.5 17.5v270q0 11 7.5 18t17.5 7v0q11 0 18 -7t7 -18zM300 295v-270
q0 -10 -7 -17.5t-18 -7.5v0q-10 0 -17.5 7.5t-7.5 17.5v270q0 11 7.5 18t17.5 7v0q11 0 18 -7t7 -18z" />
    <glyph glyph-name="o" unicode="o" horiz-adv-x="350" 
d="M296 285v0q-3 -9 -12.5 -13t-19.5 0l-248 102q-10 4 -14 14t-1 19v0q5 10 14.5 13.5t18.5 0.5l248 -103q11 -4 14.5 -13.5t-0.5 -19.5zM50 395v-270q0 -10 -7 -17.5t-18 -7.5v0q-10 0 -17.5 7.5t-7.5 17.5v270q0 11 7.5 18t17.5 7v0q11 0 18 -7t7 -18zM300 295v-270
q0 -10 -7 -17.5t-18 -7.5v0q-10 0 -17.5 7.5t-7.5 17.5v270q0 11 7.5 18t17.5 7v0q11 0 18 -7t7 -18zM296 11v0q-3 -9 -12.5 -13t-19.5 0l-248 102q-10 4 -14 14t-1 19v0q5 10 14.5 13.5t18.5 0.5l248 -103q11 -4 14.5 -13.5t-0.5 -19.5z" />
    <glyph glyph-name="p" unicode="p" horiz-adv-x="600" 
d="M296 511q4 -10 0.5 -19.5t-14.5 -13.5l-248 -103q-9 -3 -18.5 0.5t-14.5 13.5v0q-3 9 1 19t14 14l248 102q10 4 19.5 0t12.5 -13v0zM254 511v0q3 9 12.5 13t19.5 0l248 -102q10 -4 14 -14t1 -19v0q-5 -10 -14.5 -13.5t-18.5 -0.5l-248 103q-11 4 -14.5 13.5t0.5 19.5z
M296 285v0q-3 -9 -12.5 -13t-19.5 0l-248 102q-10 4 -14 14t-1 19v0q5 10 14.5 13.5t18.5 0.5l248 -103q11 -4 14.5 -13.5t-0.5 -19.5zM254 285q-4 10 -0.5 19.5t14.5 13.5l248 103q9 3 18.5 -0.5t14.5 -13.5v0q3 -9 -1 -19t-14 -14l-248 -102q-10 -4 -19.5 0t-12.5 13v0z
M50 395v-270q0 -10 -7 -17.5t-18 -7.5v0q-10 0 -17.5 7.5t-7.5 17.5v270q0 11 7.5 18t17.5 7v0q11 0 18 -7t7 -18z" />
    <glyph glyph-name="q" unicode="q" horiz-adv-x="600" 
d="M296 511q4 -10 0.5 -19.5t-14.5 -13.5l-248 -103q-9 -3 -18.5 0.5t-14.5 13.5v0q-3 9 1 19t14 14l248 102q10 4 19.5 0t12.5 -13v0zM254 511v0q3 9 12.5 13t19.5 0l248 -102q10 -4 14 -14t1 -19v0q-5 -10 -14.5 -13.5t-18.5 -0.5l-248 103q-11 4 -14.5 13.5t0.5 19.5z
M296 285v0q-3 -9 -12.5 -13t-19.5 0l-248 102q-10 4 -14 14t-1 19v0q5 10 14.5 13.5t18.5 0.5l248 -103q11 -4 14.5 -13.5t-0.5 -19.5zM254 285q-4 10 -0.5 19.5t14.5 13.5l248 103q9 3 18.5 -0.5t14.5 -13.5v0q3 -9 -1 -19t-14 -14l-248 -102q-10 -4 -19.5 0t-12.5 13v0z
M550 395v-270q0 -10 -7 -17.5t-18 -7.5v0q-10 0 -17.5 7.5t-7.5 17.5v270q0 11 7.5 18t17.5 7v0q11 0 18 -7t7 -18z" />
    <glyph glyph-name="r" unicode="r" horiz-adv-x="350" 
d="M296 285v0q-3 -9 -12.5 -13t-19.5 0l-248 102q-10 4 -14 14t-1 19v0q5 10 14.5 13.5t18.5 0.5l248 -103q11 -4 14.5 -13.5t-0.5 -19.5zM50 395v-270q0 -10 -7 -17.5t-18 -7.5v0q-10 0 -17.5 7.5t-7.5 17.5v270q0 11 7.5 18t17.5 7v0q11 0 18 -7t7 -18z" />
    <glyph glyph-name="s" unicode="s" horiz-adv-x="600" 
d="M296 511q4 -10 0.5 -19.5t-14.5 -13.5l-248 -103q-9 -3 -18.5 0.5t-14.5 13.5v0q-3 9 1 19t14 14l248 102q10 4 19.5 0t12.5 -13v0zM254 511v0q3 9 12.5 13t19.5 0l248 -102q10 -4 14 -14t1 -19v0q-5 -10 -14.5 -13.5t-18.5 -0.5l-248 103q-11 4 -14.5 13.5t0.5 19.5z
M296 285v0q-3 -9 -12.5 -13t-19.5 0l-248 102q-10 4 -14 14t-1 19v0q5 10 14.5 13.5t18.5 0.5l248 -103q11 -4 14.5 -13.5t-0.5 -19.5zM300 295v-270q0 -10 -7 -17.5t-18 -7.5v0q-10 0 -17.5 7.5t-7.5 17.5v270q0 11 7.5 18t17.5 7v0q11 0 18 -7t7 -18zM296 11v0
q-3 -9 -12.5 -13t-19.5 0l-248 102q-10 4 -14 14t-1 19v0q5 10 14.5 13.5t18.5 0.5l248 -103q11 -4 14.5 -13.5t-0.5 -19.5z" />
    <glyph glyph-name="t" unicode="t" horiz-adv-x="350" 
d="M296 511q4 -10 0.5 -19.5t-14.5 -13.5l-248 -103q-9 -3 -18.5 0.5t-14.5 13.5v0q-3 9 1 19t14 14l248 102q10 4 19.5 0t12.5 -13v0zM296 285v0q-3 -9 -12.5 -13t-19.5 0l-248 102q-10 4 -14 14t-1 19v0q5 10 14.5 13.5t18.5 0.5l248 -103q11 -4 14.5 -13.5t-0.5 -19.5z
M50 395v-270q0 -10 -7 -17.5t-18 -7.5v0q-10 0 -17.5 7.5t-7.5 17.5v270q0 11 7.5 18t17.5 7v0q11 0 18 -7t7 -18zM296 11v0q-3 -9 -12.5 -13t-19.5 0l-248 102q-10 4 -14 14t-1 19v0q5 10 14.5 13.5t18.5 0.5l248 -103q11 -4 14.5 -13.5t-0.5 -19.5z" />
    <glyph glyph-name="u" unicode="u" horiz-adv-x="350" 
d="M50 395v-270q0 -10 -7 -17.5t-18 -7.5v0q-10 0 -17.5 7.5t-7.5 17.5v270q0 11 7.5 18t17.5 7v0q11 0 18 -7t7 -18zM300 295v-270q0 -10 -7 -17.5t-18 -7.5v0q-10 0 -17.5 7.5t-7.5 17.5v270q0 11 7.5 18t17.5 7v0q11 0 18 -7t7 -18zM296 11v0q-3 -9 -12.5 -13t-19.5 0
l-248 102q-10 4 -14 14t-1 19v0q5 10 14.5 13.5t18.5 0.5l248 -103q11 -4 14.5 -13.5t-0.5 -19.5z" />
    <glyph glyph-name="v" unicode="v" horiz-adv-x="350" 
d="M50 295v-270q0 -10 -7 -17.5t-18 -7.5v0q-10 0 -17.5 7.5t-7.5 17.5v270q0 11 7.5 18t17.5 7v0q11 0 18 -7t7 -18zM4 11q-4 10 -0.5 19.5t14.5 13.5l248 103q9 3 18.5 -0.5t14.5 -13.5v0q3 -9 -1 -19t-14 -14l-248 -102q-10 -4 -19.5 0t-12.5 13v0z" />
    <glyph glyph-name="w" unicode="w" horiz-adv-x="600" 
d="M50 395v-270q0 -10 -7 -17.5t-18 -7.5v0q-10 0 -17.5 7.5t-7.5 17.5v270q0 11 7.5 18t17.5 7v0q11 0 18 -7t7 -18zM300 295v-270q0 -10 -7 -17.5t-18 -7.5v0q-10 0 -17.5 7.5t-7.5 17.5v270q0 11 7.5 18t17.5 7v0q11 0 18 -7t7 -18zM550 395v-270q0 -10 -7 -17.5
t-18 -7.5v0q-10 0 -17.5 7.5t-7.5 17.5v270q0 11 7.5 18t17.5 7v0q11 0 18 -7t7 -18zM296 11v0q-3 -9 -12.5 -13t-19.5 0l-248 102q-10 4 -14 14t-1 19v0q5 10 14.5 13.5t18.5 0.5l248 -103q11 -4 14.5 -13.5t-0.5 -19.5zM254 11q-4 10 -0.5 19.5t14.5 13.5l248 103
q9 3 18.5 -0.5t14.5 -13.5v0q3 -9 -1 -19t-14 -14l-248 -102q-10 -4 -19.5 0t-12.5 13v0z" />
    <glyph glyph-name="x" unicode="x" horiz-adv-x="600" 
d="M296 285v0q-3 -9 -12.5 -13t-19.5 0l-248 102q-10 4 -14 14t-1 19v0q5 10 14.5 13.5t18.5 0.5l248 -103q11 -4 14.5 -13.5t-0.5 -19.5zM254 285q-4 10 -0.5 19.5t14.5 13.5l248 103q9 3 18.5 -0.5t14.5 -13.5v0q3 -9 -1 -19t-14 -14l-248 -102q-10 -4 -19.5 0t-12.5 13v0
zM300 295v-270q0 -10 -7 -17.5t-18 -7.5v0q-10 0 -17.5 7.5t-7.5 17.5v270q0 11 7.5 18t17.5 7v0q11 0 18 -7t7 -18zM296 11v0q-3 -9 -12.5 -13t-19.5 0l-248 102q-10 4 -14 14t-1 19v0q5 10 14.5 13.5t18.5 0.5l248 -103q11 -4 14.5 -13.5t-0.5 -19.5zM254 11
q-4 10 -0.5 19.5t14.5 13.5l248 103q9 3 18.5 -0.5t14.5 -13.5v0q3 -9 -1 -19t-14 -14l-248 -102q-10 -4 -19.5 0t-12.5 13v0z" />
    <glyph glyph-name="y" unicode="y" horiz-adv-x="600" 
d="M254 511v0q3 9 12.5 13t19.5 0l248 -102q10 -4 14 -14t1 -19v0q-5 -10 -14.5 -13.5t-18.5 -0.5l-248 103q-11 4 -14.5 13.5t0.5 19.5zM296 285v0q-3 -9 -12.5 -13t-19.5 0l-248 102q-10 4 -14 14t-1 19v0q5 10 14.5 13.5t18.5 0.5l248 -103q11 -4 14.5 -13.5t-0.5 -19.5z
M254 285q-4 10 -0.5 19.5t14.5 13.5l248 103q9 3 18.5 -0.5t14.5 -13.5v0q3 -9 -1 -19t-14 -14l-248 -102q-10 -4 -19.5 0t-12.5 13v0zM550 395v-270q0 -10 -7 -17.5t-18 -7.5v0q-10 0 -17.5 7.5t-7.5 17.5v270q0 11 7.5 18t17.5 7v0q11 0 18 -7t7 -18zM254 11
q-4 10 -0.5 19.5t14.5 13.5l248 103q9 3 18.5 -0.5t14.5 -13.5v0q3 -9 -1 -19t-14 -14l-248 -102q-10 -4 -19.5 0t-12.5 13v0z" />
    <glyph glyph-name="z" unicode="z" horiz-adv-x="600" 
d="M254 511v0q3 9 12.5 13t19.5 0l248 -102q10 -4 14 -14t1 -19v0q-5 -10 -14.5 -13.5t-18.5 -0.5l-248 103q-11 4 -14.5 13.5t0.5 19.5zM296 285v0q-3 -9 -12.5 -13t-19.5 0l-248 102q-10 4 -14 14t-1 19v0q5 10 14.5 13.5t18.5 0.5l248 -103q11 -4 14.5 -13.5t-0.5 -19.5z
M254 285q-4 10 -0.5 19.5t14.5 13.5l248 103q9 3 18.5 -0.5t14.5 -13.5v0q3 -9 -1 -19t-14 -14l-248 -102q-10 -4 -19.5 0t-12.5 13v0zM50 395v-270q0 -10 -7 -17.5t-18 -7.5v0q-10 0 -17.5 7.5t-7.5 17.5v270q0 11 7.5 18t17.5 7v0q11 0 18 -7t7 -18zM296 11v0
q-3 -9 -12.5 -13t-19.5 0l-248 102q-10 4 -14 14t-1 19v0q5 10 14.5 13.5t18.5 0.5l248 -103q11 -4 14.5 -13.5t-0.5 -19.5z" />
    <glyph glyph-name="braceleft" unicode="{" horiz-adv-x="350" 
d="M296 511q4 -10 0.5 -19.5t-14.5 -13.5l-248 -103q-9 -3 -18.5 0.5t-14.5 13.5v0q-3 9 1 19t14 14l248 102q10 4 19.5 0t12.5 -13v0zM50 395v-270q0 -10 -7 -17.5t-18 -7.5v0q-10 0 -17.5 7.5t-7.5 17.5v270q0 11 7.5 18t17.5 7v0q11 0 18 -7t7 -18zM296 11v0
q-3 -9 -12.5 -13t-19.5 0l-248 102q-10 4 -14 14t-1 19v0q5 10 14.5 13.5t18.5 0.5l248 -103q11 -4 14.5 -13.5t-0.5 -19.5z" />
    <glyph glyph-name="bar" unicode="|" 
 />
    <glyph glyph-name="braceright" unicode="}" horiz-adv-x="350" 
d="M4 511v0q3 9 12.5 13t19.5 0l248 -102q10 -4 14 -14t1 -19v0q-5 -10 -14.5 -13.5t-18.5 -0.5l-248 103q-11 4 -14.5 13.5t0.5 19.5zM300 395v-270q0 -10 -7 -17.5t-18 -7.5v0q-10 0 -17.5 7.5t-7.5 17.5v270q0 11 7.5 18t17.5 7v0q11 0 18 -7t7 -18zM4 11
q-4 10 -0.5 19.5t14.5 13.5l248 103q9 3 18.5 -0.5t14.5 -13.5v0q3 -9 -1 -19t-14 -14l-248 -102q-10 -4 -19.5 0t-12.5 13v0z" />
    <glyph glyph-name="asciitilde" unicode="~" horiz-adv-x="600" 
d="M296 511q4 -10 0.5 -19.5t-14.5 -13.5l-248 -103q-9 -3 -18.5 0.5t-14.5 13.5v0q-3 9 1 19t14 14l248 102q10 4 19.5 0t12.5 -13v0zM254 511v0q3 9 12.5 13t19.5 0l248 -102q10 -4 14 -14t1 -19v0q-5 -10 -14.5 -13.5t-18.5 -0.5l-248 103q-11 4 -14.5 13.5t0.5 19.5z
" />
    <glyph glyph-name="uni00A0" unicode="&#xa0;" 
 />
    <glyph glyph-name="exclamdown" unicode="&#xa1;" 
 />
    <glyph glyph-name="cent" unicode="&#xa2;" 
 />
    <glyph glyph-name="sterling" unicode="&#xa3;" 
 />
    <glyph glyph-name="currency" unicode="&#xa4;" 
 />
    <glyph glyph-name="yen" unicode="&#xa5;" 
 />
    <glyph glyph-name="brokenbar" unicode="&#xa6;" 
 />
    <glyph glyph-name="section" unicode="&#xa7;" 
 />
    <glyph glyph-name="dieresis" unicode="&#xa8;" 
 />
    <glyph glyph-name="copyright" unicode="&#xa9;" 
 />
    <glyph glyph-name="ordfeminine" unicode="&#xaa;" 
 />
    <glyph glyph-name="guillemotleft" unicode="&#xab;" 
 />
    <glyph glyph-name="logicalnot" unicode="&#xac;" 
 />
    <glyph glyph-name="uni00AD" unicode="&#xad;" 
 />
    <glyph glyph-name="registered" unicode="&#xae;" 
 />
    <glyph glyph-name="macron" unicode="&#xaf;" 
 />
    <glyph glyph-name="degree" unicode="&#xb0;" 
 />
    <glyph glyph-name="plusminus" unicode="&#xb1;" 
 />
    <glyph glyph-name="uni00B2" unicode="&#xb2;" 
 />
    <glyph glyph-name="uni00B3" unicode="&#xb3;" 
 />
    <glyph glyph-name="acute" unicode="&#xb4;" 
 />
    <glyph glyph-name="uni00B5" unicode="&#xb5;" 
 />
    <glyph glyph-name="paragraph" unicode="&#xb6;" 
 />
    <glyph glyph-name="periodcentered" unicode="&#xb7;" 
 />
    <glyph glyph-name="cedilla" unicode="&#xb8;" 
 />
    <glyph glyph-name="uni00B9" unicode="&#xb9;" 
 />
    <glyph glyph-name="ordmasculine" unicode="&#xba;" 
 />
    <glyph glyph-name="guillemotright" unicode="&#xbb;" 
 />
    <glyph glyph-name="onequarter" unicode="&#xbc;" 
 />
    <glyph glyph-name="onehalf" unicode="&#xbd;" 
 />
    <glyph glyph-name="threequarters" unicode="&#xbe;" 
 />
    <glyph glyph-name="questiondown" unicode="&#xbf;" 
 />
    <glyph glyph-name="Agrave" unicode="&#xc0;" 
 />
    <glyph glyph-name="Aacute" unicode="&#xc1;" 
 />
    <glyph glyph-name="Acircumflex" unicode="&#xc2;" 
 />
    <glyph glyph-name="Atilde" unicode="&#xc3;" 
 />
    <glyph glyph-name="Adieresis" unicode="&#xc4;" 
 />
    <glyph glyph-name="Aring" unicode="&#xc5;" 
 />
    <glyph glyph-name="AE" unicode="&#xc6;" 
 />
    <glyph glyph-name="Ccedilla" unicode="&#xc7;" 
 />
    <glyph glyph-name="Egrave" unicode="&#xc8;" 
 />
    <glyph glyph-name="Eacute" unicode="&#xc9;" 
 />
    <glyph glyph-name="Ecircumflex" unicode="&#xca;" 
 />
    <glyph glyph-name="Edieresis" unicode="&#xcb;" 
 />
    <glyph glyph-name="Igrave" unicode="&#xcc;" 
 />
    <glyph glyph-name="Iacute" unicode="&#xcd;" 
 />
    <glyph glyph-name="Icircumflex" unicode="&#xce;" 
 />
    <glyph glyph-name="Idieresis" unicode="&#xcf;" 
 />
    <glyph glyph-name="Eth" unicode="&#xd0;" 
 />
    <glyph glyph-name="Ntilde" unicode="&#xd1;" 
 />
    <glyph glyph-name="Ograve" unicode="&#xd2;" 
 />
    <glyph glyph-name="Oacute" unicode="&#xd3;" 
 />
    <glyph glyph-name="Ocircumflex" unicode="&#xd4;" 
 />
    <glyph glyph-name="Otilde" unicode="&#xd5;" 
 />
    <glyph glyph-name="Odieresis" unicode="&#xd6;" 
 />
    <glyph glyph-name="multiply" unicode="&#xd7;" 
 />
    <glyph glyph-name="Oslash" unicode="&#xd8;" 
 />
    <glyph glyph-name="Ugrave" unicode="&#xd9;" 
 />
    <glyph glyph-name="Uacute" unicode="&#xda;" 
 />
    <glyph glyph-name="Ucircumflex" unicode="&#xdb;" 
 />
    <glyph glyph-name="Udieresis" unicode="&#xdc;" 
 />
    <glyph glyph-name="Yacute" unicode="&#xdd;" 
 />
    <glyph glyph-name="Thorn" unicode="&#xde;" 
 />
    <glyph glyph-name="germandbls" unicode="&#xdf;" 
 />
    <glyph glyph-name="agrave" unicode="&#xe0;" 
 />
    <glyph glyph-name="aacute" unicode="&#xe1;" 
 />
    <glyph glyph-name="acircumflex" unicode="&#xe2;" 
 />
    <glyph glyph-name="atilde" unicode="&#xe3;" 
 />
    <glyph glyph-name="adieresis" unicode="&#xe4;" 
 />
    <glyph glyph-name="aring" unicode="&#xe5;" 
 />
    <glyph glyph-name="ae" unicode="&#xe6;" 
 />
    <glyph glyph-name="ccedilla" unicode="&#xe7;" 
 />
    <glyph glyph-name="egrave" unicode="&#xe8;" 
 />
    <glyph glyph-name="eacute" unicode="&#xe9;" 
 />
    <glyph glyph-name="ecircumflex" unicode="&#xea;" 
 />
    <glyph glyph-name="edieresis" unicode="&#xeb;" 
 />
    <glyph glyph-name="igrave" unicode="&#xec;" 
 />
    <glyph glyph-name="iacute" unicode="&#xed;" 
 />
    <glyph glyph-name="icircumflex" unicode="&#xee;" 
 />
    <glyph glyph-name="idieresis" unicode="&#xef;" 
 />
    <glyph glyph-name="eth" unicode="&#xf0;" 
 />
    <glyph glyph-name="ntilde" unicode="&#xf1;" 
 />
    <glyph glyph-name="ograve" unicode="&#xf2;" 
 />
    <glyph glyph-name="oacute" unicode="&#xf3;" 
 />
    <glyph glyph-name="ocircumflex" unicode="&#xf4;" 
 />
    <glyph glyph-name="otilde" unicode="&#xf5;" 
 />
    <glyph glyph-name="odieresis" unicode="&#xf6;" 
 />
    <glyph glyph-name="divide" unicode="&#xf7;" 
 />
    <glyph glyph-name="oslash" unicode="&#xf8;" 
 />
    <glyph glyph-name="ugrave" unicode="&#xf9;" 
 />
    <glyph glyph-name="uacute" unicode="&#xfa;" 
 />
    <glyph glyph-name="ucircumflex" unicode="&#xfb;" 
 />
    <glyph glyph-name="udieresis" unicode="&#xfc;" 
 />
    <glyph glyph-name="yacute" unicode="&#xfd;" 
 />
    <glyph glyph-name="thorn" unicode="&#xfe;" 
 />
    <glyph glyph-name="ydieresis" unicode="&#xff;" 
 />
    <glyph glyph-name="OE" unicode="&#x152;" 
 />
    <glyph glyph-name="oe" unicode="&#x153;" 
 />
    <glyph glyph-name="Scaron" unicode="&#x160;" 
 />
    <glyph glyph-name="scaron" unicode="&#x161;" 
 />
    <glyph glyph-name="Ydieresis" unicode="&#x178;" 
 />
    <glyph glyph-name="Zcaron" unicode="&#x17d;" 
 />
    <glyph glyph-name="zcaron" unicode="&#x17e;" 
 />
    <glyph glyph-name="florin" unicode="&#x192;" 
 />
    <glyph glyph-name="circumflex" unicode="&#x2c6;" 
 />
    <glyph glyph-name="tilde" unicode="&#x2dc;" 
 />
    <glyph glyph-name="endash" unicode="&#x2013;" 
 />
    <glyph glyph-name="emdash" unicode="&#x2014;" 
 />
    <glyph glyph-name="quoteleft" unicode="&#x2018;" 
 />
    <glyph glyph-name="quoteright" unicode="&#x2019;" 
 />
    <glyph glyph-name="quotesinglbase" unicode="&#x201a;" 
 />
    <glyph glyph-name="quotedblleft" unicode="&#x201c;" 
 />
    <glyph glyph-name="quotedblright" unicode="&#x201d;" 
 />
    <glyph glyph-name="quotedblbase" unicode="&#x201e;" 
 />
    <glyph glyph-name="dagger" unicode="&#x2020;" 
 />
    <glyph glyph-name="daggerdbl" unicode="&#x2021;" 
 />
    <glyph glyph-name="bullet" unicode="&#x2022;" 
 />
    <glyph glyph-name="ellipsis" unicode="&#x2026;" 
 />
    <glyph glyph-name="perthousand" unicode="&#x2030;" 
 />
    <glyph glyph-name="guilsinglleft" unicode="&#x2039;" 
 />
    <glyph glyph-name="guilsinglright" unicode="&#x203a;" 
 />
    <glyph glyph-name="Euro" unicode="&#x20ac;" 
 />
    <glyph glyph-name="trademark" unicode="&#x2122;" 
 />
  </font>
</defs>
</svg>
